<?xml version="1.0" encoding="utf-8"?>
<!-- Generator: Adobe Illustrator 19.2.1, SVG Export Plug-In . SVG Version: 6.00 Build 0)  -->
<svg version="1.1" xmlns="http://www.w3.org/2000/svg" xmlns:xlink="http://www.w3.org/1999/xlink" x="0px" y="0px"
	 viewBox="0 0 232 68" style="enable-background:new 0 0 232 68;" xml:space="preserve">
<style type="text/css">
	.st0{fill:#00bfd8;}
	.st1{fill:#04afc5;}
	.st2{fill:#008ea0;}
	.st3{fill:#4a4a4a;}
</style>
<g id="Layer_1">
	<title>tabler</title>
	<desc>Created with Sketch.</desc>
</g>
<g id="Layer_2">
	<g>
		<polygon class="st0" points="20.9,39.8 2,35.7 64,6.1 		"/>
		<polygon class="st1" points="20.9,39.8 22,55.5 28.2,44.8 64,6.1 		"/>
		<polygon class="st2" points="22,55.5 33.2,49.4 28.2,44.8 		"/>
		<polygon class="st0" points="28.2,44.8 42.2,62.3 64,6.1 		"/>
	</g>
	<g>
		<path class="st3" d="M70,48.6V18.7h8.4c2.6,0,4.9,0.6,6.9,1.7c2,1.1,3.5,2.8,4.6,4.9c1.1,2.1,1.6,4.6,1.7,7.3v1.9
			c0,2.8-0.5,5.3-1.6,7.4c-1.1,2.1-2.6,3.7-4.7,4.9c-2,1.1-4.4,1.7-7,1.7H70z M73.9,21.9v23.4h4.1c3,0,5.4-0.9,7.1-2.8
			c1.7-1.9,2.5-4.6,2.5-8.1v-1.7c0-3.4-0.8-6-2.4-7.9c-1.6-1.9-3.9-2.8-6.8-2.9H73.9z"/>
		<path class="st3" d="M102.6,18.7l9.8,24.4l9.8-24.4h5.1v29.9h-3.9V36.9l0.4-12.6l-9.8,24.2h-3l-9.8-24.1l0.4,12.5v11.6h-3.9V18.7
			H102.6z"/>
		<path class="st3" d="M148.5,36.9v11.7h-3.9V18.7h11c3.3,0,5.8,0.8,7.7,2.5c1.9,1.7,2.8,3.9,2.8,6.6c0,2.9-0.9,5.1-2.7,6.7
			c-1.8,1.6-4.4,2.3-7.8,2.3H148.5z M148.5,33.7h7.1c2.1,0,3.7-0.5,4.8-1.5c1.1-1,1.7-2.4,1.7-4.3c0-1.8-0.6-3.2-1.7-4.3
			c-1.1-1.1-2.7-1.6-4.6-1.7h-7.3V33.7z"/>
		<path class="st3" d="M170.5,20.5c0-0.6,0.2-1.1,0.6-1.6c0.4-0.4,0.9-0.6,1.7-0.6s1.3,0.2,1.7,0.6c0.4,0.4,0.6,0.9,0.6,1.6
			c0,0.6-0.2,1.1-0.6,1.5c-0.4,0.4-0.9,0.6-1.7,0.6s-1.3-0.2-1.7-0.6C170.7,21.6,170.5,21.1,170.5,20.5z M174.6,48.6h-3.8V26.4h3.8
			V48.6z"/>
		<path class="st3" d="M184.8,48.6H181V17.1h3.8V48.6z"/>
		<path class="st3" d="M189.9,37.3c0-2.2,0.4-4.1,1.3-5.9c0.9-1.7,2-3.1,3.6-4S198,26,200,26c3,0,5.5,1,7.3,3.1
			c1.9,2.1,2.8,4.9,2.8,8.4v0.3c0,2.2-0.4,4.1-1.2,5.8c-0.8,1.7-2,3.1-3.5,4c-1.5,1-3.3,1.4-5.3,1.4c-3,0-5.4-1-7.3-3.1
			c-1.9-2.1-2.8-4.9-2.8-8.3V37.3z M193.7,37.7c0,2.5,0.6,4.4,1.7,5.9c1.1,1.5,2.7,2.2,4.6,2.2c1.9,0,3.5-0.8,4.6-2.3
			c1.1-1.5,1.7-3.6,1.7-6.4c0-2.4-0.6-4.4-1.7-5.9c-1.2-1.5-2.7-2.3-4.6-2.3c-1.9,0-3.4,0.7-4.5,2.2
			C194.3,32.8,193.7,34.9,193.7,37.7z"/>
		<path class="st3" d="M220,21v5.4h4.1v2.9H220v13.8c0,0.9,0.2,1.6,0.6,2c0.4,0.4,1,0.7,1.9,0.7c0.4,0,1-0.1,1.8-0.2v3.1
			c-1,0.3-2,0.4-2.9,0.4c-1.7,0-3-0.5-3.8-1.5c-0.9-1-1.3-2.5-1.3-4.4V29.3h-4v-2.9h4V21H220z"/>
	</g>
</g>
</svg>
