<?xml version="1.0" encoding="utf-8"?>
<!-- Generator: Adobe Illustrator 19.2.1, SVG Export Plug-In . SVG Version: 6.00 Build 0)  -->
<svg version="1.1" id="Layer_1" xmlns:sketch="http://www.bohemiancoding.com/sketch/ns"
	 xmlns="http://www.w3.org/2000/svg" xmlns:xlink="http://www.w3.org/1999/xlink" x="0px" y="0px" width="32px" height="32px"
	 viewBox="0 0 32 32" style="enable-background:new 0 0 32 32;" xml:space="preserve">
<style type="text/css">
	.st0{fill:#00BFD8;}
</style>
<title></title>
<desc></desc>
<g id="Page-1">
	<g id="icon-92-inbox-download">
		<path id="inbox-download" class="st0" d="M15.4,16.4l-4.1-4.1l-0.9,0.9l5.7,5.7l5.7-5.7l-0.9-0.9l-4.1,4.1V2.6h-1.3V16.4
			L15.4,16.4z M17.9,10.1h6.8l5.5,8.8h-8.5v2.5c0,1.4-1.1,2.5-2.5,2.5h-6.3c-1.4,0-2.5-1.1-2.5-2.5v-2.5H1.9l0,0l5.5-8.8h6.8V8.8
			H6.6L0.4,18.9v0.6v10.7h31.4V19.5v-0.6L25.5,8.8h-7.5V10.1L17.9,10.1L17.9,10.1z M23,20.2h7.5v8.8H1.6v-8.8h7.5V22
			c0,1.7,1.4,3.1,3.1,3.1h7.5c1.7,0,3.1-1.4,3.1-3.1V20.2L23,20.2L23,20.2z"/>
	</g>
</g>
</svg>
