<?xml version="1.0" encoding="utf-8"?>
<!-- Generator: Adobe Illustrator 19.2.1, SVG Export Plug-In . SVG Version: 6.00 Build 0)  -->
<svg version="1.1" id="Layer_1" xmlns="http://www.w3.org/2000/svg" xmlns:xlink="http://www.w3.org/1999/xlink" x="0px" y="0px"
	 viewBox="0 0 310 60" style="enable-background:new 0 0 310 60;" xml:space="preserve">
<style type="text/css">
	.st0{fill:#757575;}
	.st1{fill:#F9AB00;}
	.st2{fill:#E37400;}
</style>
<g>
	<path class="st0" d="M181.4,23.2l3.5,9.3h-6.9L181.4,23.2z M180.1,20.1l-7.7,20.4h2.9l2-5.5h8.6l2,5.5h2.9l-7.7-20.4H180.1
		L180.1,20.1z M221.9,40.4h2.7V20.1h-2.7V40.4z M194.7,28.5c0.9-1.3,2.7-2.4,4.4-2.4c3.5,0,5.3,2.4,5.3,6v8.6h-2.7v-8.2
		c0-2.9-1.5-4-3.5-4c-2.2,0-3.8,2.2-3.8,4.2v7.7h-2.7V26.3h2.7L194.7,28.5L194.7,28.5z M206.6,36.2c0-3.1,2.9-4.9,6.2-4.9
		c2,0,3.3,0.4,3.8,0.9v-0.4c0-2.2-1.8-3.3-3.5-3.3c-1.5,0-2.9,0.7-3.3,2l-2.4-1.1c0.4-1.3,2.2-3.3,5.8-3.3c3.3,0,6.2,2,6.2,6v8.4
		h-2.4v-2h-0.2c-0.7,1.1-2.2,2.4-4.6,2.4C209.1,40.9,206.6,39.1,206.6,36.2 M216.6,34.5c0,0-1.1-0.9-3.3-0.9c-2.7,0-3.8,1.5-3.8,2.7
		c0,1.5,1.5,2.2,2.9,2.2C214.4,38.4,216.6,36.7,216.6,34.5"/>
	<path class="st0" d="M228.3,46.6l3.1-7.3l-5.5-12.8h2.7l4.2,9.7l4.2-9.7h2.7L231,46.6H228.3L228.3,46.6z M267.3,31.1
		c-0.7-1.8-2.2-2.9-3.8-2.9c-2.2,0-4.2,2-4.2,4.9c0,2.9,2,4.9,4.2,4.9c1.5,0,3.1-1.1,3.8-2.7l2.2,1.3c-1.1,2.4-3.3,4-6,4
		c-3.8,0-6.9-3.3-6.9-7.5c0-4.4,3.1-7.5,6.9-7.5c2.7,0,4.9,1.5,6,4L267.3,31.1L267.3,31.1z"/>
	<path class="st0" d="M276.8,40.9c3.5,0,5.3-2,5.3-4.4c0-5.3-7.7-3.3-7.7-6.4c0-1.1,0.9-1.8,2.4-1.8s3.1,0.7,3.8,1.8l1.5-1.5
		c-0.9-1.1-3.3-2.7-5.5-2.7c-3.3,0-5.1,2-5.1,4.4c0,5.1,8,3.3,8,6c0,1.3-0.9,2.2-2.7,2.2s-2.7-1.1-3.5-2.2l-2,1.5
		C272.6,39.1,274.6,40.9,276.8,40.9L276.8,40.9z M251.6,40.4h2.7V26.3h-2.7V40.4L251.6,40.4z"/>
	<path class="st0" d="M252.7,19.4c1.1,0,1.8,0.9,1.8,1.8c0,1.1-0.9,1.8-1.8,1.8s-1.8-0.9-1.8-1.8S251.8,19.4,252.7,19.4z
		 M248.9,38.2l0.4,2h-2.7c-2.4,0-3.5-1.8-3.5-4.4v-6.9h-2.7v-2.7h2.7v-4.2h2.7v4.2h3.1v2.7h-3.1v7.3
		C245.8,38.2,247.4,38.2,248.9,38.2L248.9,38.2z"/>
	<path class="st0" d="M85.7,28.3v3.3h7.7c-0.2,1.8-0.9,3.1-1.8,4c-1.1,1.1-2.9,2.4-6,2.4c-4.6,0-8.4-3.8-8.4-8.6
		c0-4.6,3.8-8.6,8.4-8.6c2.7,0,4.4,1.1,5.8,2.2l2.2-2.2c-2-1.8-4.4-3.3-8-3.3c-6.4,0-12,5.3-12,11.7s5.5,11.7,11.9,11.7
		c3.5,0,6.2-1.1,8.2-3.3c2.2-2.2,2.9-5.1,2.9-7.5c0-0.7,0-1.5-0.2-2H85.7L85.7,28.3z M105.4,25.6c-4.2,0-7.5,3.1-7.5,7.5
		s3.3,7.5,7.5,7.5c4.2,0,7.5-3.3,7.5-7.5C113,28.7,109.6,25.6,105.4,25.6z M105.4,37.8c-2.2,0-4.2-2-4.2-4.6c0-2.7,2-4.6,4.2-4.6
		c2.2,0,4.2,1.8,4.2,4.6C109.6,36,107.6,37.8,105.4,37.8z M141.7,27.2c-0.9-0.9-2.2-1.8-4.2-1.8c-3.8,0-7.1,3.3-7.1,7.5
		s3.3,7.5,7.1,7.5c1.8,0,3.3-0.9,4-1.8h0.2v1.1c0,2.9-1.5,4.4-4,4.4c-2,0-3.3-1.5-3.8-2.7l-2.9,1.1c0.9,2,3.1,4.4,6.6,4.4
		c4,0,7.3-2.2,7.3-8V25.4H142v1.8L141.7,27.2z M138,37.8c-2.2,0-4-2-4-4.6c0-2.7,1.8-4.6,4-4.6c2.2,0,4,2,4,4.6
		C142,35.8,140.2,37.8,138,37.8z M121.8,25.6c-4.2,0-7.5,3.1-7.5,7.5s3.3,7.5,7.5,7.5s7.5-3.3,7.5-7.5
		C129.6,28.7,126,25.6,121.8,25.6z M121.8,37.8c-2.2,0-4.2-2-4.2-4.6c0-2.7,2-4.6,4.2-4.6c2.2,0,4.2,1.8,4.2,4.6
		C126,36,124,37.8,121.8,37.8z M147.5,17.6h3.3v23h-3.3V17.6z M159.9,37.8c-1.8,0-2.9-0.9-3.8-2.2l10.2-4.2l-0.4-0.9
		c-0.7-1.8-2.7-4.9-6.4-4.9c-4,0-7.1,3.1-7.1,7.5c0,4.2,3.3,7.5,7.5,7.5c3.5,0,5.5-2.2,6.4-3.3l-2.7-1.8
		C162.8,36.9,161.7,37.8,159.9,37.8L159.9,37.8z M159.7,28.5c1.3,0,2.4,0.7,2.9,1.8l-6.9,2.9C155.7,29.8,157.9,28.5,159.7,28.5
		L159.7,28.5z"/>
</g>
<g transform="matrix(.264928 0 0 .264927 28.551061 -25.049684)">
	<path class="st1" d="M95.8,146.9v113.6c0,12.7,8.8,19.8,18.1,19.8c8.6,0,18.1-6,18.1-19.8V147.7c0-11.7-8.6-18.9-18.1-18.9
		S95.8,136.8,95.8,146.9z"/>
	<g>
		<path class="st2" d="M48.5,204.5v55.9c0,12.7,8.8,19.8,18.1,19.8c8.6,0,18.1-6,18.1-19.8v-55.1c0-11.7-8.6-18.9-18.1-18.9
			S48.5,194.5,48.5,204.5z"/>
		<circle class="st2" cx="19.2" cy="262.2" r="18.1"/>
	</g>
</g>
</svg>
