<svg id="Layer_1" data-name="Layer 1" xmlns="http://www.w3.org/2000/svg" viewBox="0 0 148 58"><defs><style>.cls-1{fill:#2e2e7e;}.cls-2{fill:#ebb630;}.cls-3{fill:#d25a2f;}</style></defs><title>instamojo</title><path class="cls-1" d="M41.91,31.23s-.13-.52-2.21-.83a24.38,24.38,0,0,1-2.93-.56,4.52,4.52,0,0,1-2.09-1.27A3.64,3.64,0,0,1,33.8,26a3.93,3.93,0,0,1,.82-2.46A5.46,5.46,0,0,1,37,21.8a10.3,10.3,0,0,1,3.78-.62,15.3,15.3,0,0,1,3.11.32,8.94,8.94,0,0,1,2.58.9L45,25.83a9.05,9.05,0,0,0-4-.94,5.47,5.47,0,0,0-1.53.15,1,1,0,0,0-.65.52c-.21.43,0,1.1,2.38,1.34a15.67,15.67,0,0,1,2.95.61,4.51,4.51,0,0,1,2,1.26A3.59,3.59,0,0,1,47,31.33a3.9,3.9,0,0,1-.82,2.43,5.36,5.36,0,0,1-2.43,1.69,10.9,10.9,0,0,1-3.86.61,15.52,15.52,0,0,1-3.56-.41,9.39,9.39,0,0,1-2.82-1.08L35,31.11a16.73,16.73,0,0,0,2.34.73,12.8,12.8,0,0,0,2.92.29C42.22,32.15,41.91,31.23,41.91,31.23Z"/><path class="cls-1" d="M57.25,35.24a4.89,4.89,0,0,1-1.5.59,8.31,8.31,0,0,1-1.88.2,5.92,5.92,0,0,1-4.15-1.33,5.12,5.12,0,0,1-1.44-4V18.85h4.86v2.33h3.14v3.91H53.13v5.23a1.66,1.66,0,0,0,.38,1.18,1.37,1.37,0,0,0,1,.41A2.57,2.57,0,0,0,56,31.47Z"/><path class="cls-1" d="M103.48,35.09a7,7,0,0,1-2.8-2.65,7.78,7.78,0,0,1,0-7.67,7,7,0,0,1,2.79-2.64,9.11,9.11,0,0,1,8.07,0,6.9,6.9,0,0,1,2.79,2.63,7.89,7.89,0,0,1,0,7.68,7,7,0,0,1-2.79,2.65,9,9,0,0,1-8.05,0Zm6.11-4a3.67,3.67,0,0,0,.82-2.53,3.58,3.58,0,0,0-.82-2.49,2.89,2.89,0,0,0-4.19,0,3.57,3.57,0,0,0-.82,2.49,3.67,3.67,0,0,0,.82,2.53,2.86,2.86,0,0,0,4.19,0Z"/><path class="cls-1" d="M126.94,35.09a7,7,0,0,1-2.8-2.65,7.78,7.78,0,0,1,0-7.67,7,7,0,0,1,2.79-2.64,9.11,9.11,0,0,1,8.07,0,6.9,6.9,0,0,1,2.79,2.63,7.89,7.89,0,0,1,0,7.68A7,7,0,0,1,135,35.09a9,9,0,0,1-8.05,0Zm6.11-4a3.67,3.67,0,0,0,.82-2.53A3.58,3.58,0,0,0,133,26.1a2.89,2.89,0,0,0-4.19,0,3.58,3.58,0,0,0-.82,2.49,3.67,3.67,0,0,0,.82,2.53,2.86,2.86,0,0,0,4.19,0Z"/><path class="cls-1" d="M16.11,35.64c0,.53-1.23,1-2.75,1s-2.75-.43-2.75-1V22.13c0-.52,1.23-.94,2.75-.94s2.75.42,2.75.94Z"/><ellipse class="cls-2" cx="13.36" cy="22.13" rx="2.75" ry="0.94"/><ellipse class="cls-3" cx="13.36" cy="15.44" rx="2.65" ry="2.75"/><path class="cls-1" d="M32.09,28.32a7.13,7.13,0,0,0-14.26,0V36h4.86V28.91q0-2.84,2.28-2.84h0q2.28,0,2.28,2.84V36h4.86V28.32Z"/><path class="cls-1" d="M57.49,28.84a7.67,7.67,0,0,1,15.34,0V36H68.26V34.45a5,5,0,0,1-4,1.59,6.74,6.74,0,0,1-3.4-.87,6.33,6.33,0,0,1-2.43-2.49,7.58,7.58,0,0,1-.9-3.74ZM67.18,31A3.41,3.41,0,0,0,68,28.58a3.33,3.33,0,0,0-.81-2.38,2.93,2.93,0,0,0-4.15,0,3.33,3.33,0,0,0-.81,2.38A3.41,3.41,0,0,0,63,31a2.9,2.9,0,0,0,4.15,0Z"/><path class="cls-1" d="M98.2,28.31a7.13,7.13,0,0,0-11.84-5.36,7.13,7.13,0,0,0-11.84,5.36V36h4.86V28.9q0-2.84,2.28-2.84t2.28,2.84V36H88.8V28.9q0-2.84,2.28-2.84t2.28,2.84V36H98.2V28.31Z"/><path class="cls-1" d="M121.65,36.32a5.77,5.77,0,0,1-.86,3.28,5.07,5.07,0,0,1-2.08,1.84,5.6,5.6,0,0,1-2.34.57l-1.62-3.69a3,3,0,0,0,1.33-.75,2.39,2.39,0,0,0,.57-1.26,14.34,14.34,0,0,0,.13-2.25V21.19h4.86Z"/></svg>