<svg xmlns="http://www.w3.org/2000/svg" xmlns:xlink="http://www.w3.org/1999/xlink" viewBox="0 0 148 58"><defs><clipPath id="a"><rect x="11" y="17.74999" width="126.9458" height="22.64001" style="fill:none"/></clipPath></defs><title>paystack</title><g style="clip-path:url(#a)"><path d="M29.04733,19.90321H12.056A1.07167,1.07167,0,0,0,11,20.97214v1.91632A1.06378,1.06378,0,0,0,12.0568,23.959H29.04652a1.08492,1.08492,0,0,0,1.07055-1.06974V20.98589a1.07862,1.07862,0,0,0-1.06974-1.08349v0.00081Zm0,10.66668H12.056a1.05114,1.05114,0,0,0-.74712.31373,1.0754,1.0754,0,0,0-.30968.756V33.556a1.06308,1.06308,0,0,0,1.0568,1.06974H29.04571a1.0751,1.0751,0,0,0,1.07055-1.06893V31.63963a1.06631,1.06631,0,0,0-1.06974-1.06974h0.00081Zm-7.42512,5.3204H12.0568a1.048,1.048,0,0,0-.74712.31292,1.0754,1.0754,0,0,0-.30968.756v1.91631a1.06308,1.06308,0,0,0,1.0568,1.06974h9.55166a1.06286,1.06286,0,0,0,1.0568-1.06893V36.95923a1.04306,1.04306,0,0,0-1.016-1.0694q-0.01351-.00034-0.027-0.00034V35.8903Zm8.49486-10.65455H12.0568a1.05128,1.05128,0,0,0-.74712.31292A1.0754,1.0754,0,0,0,11,26.30549V28.2218a1.0636,1.0636,0,0,0,1.0568,1.06974H30.10413a1.06287,1.06287,0,0,0,1.056-1.06974V26.30549a1.052,1.052,0,0,0-1.034-1.06963Z" style="fill:#00c3f7"/><path d="M49.89312,24.2226a5.601,5.601,0,0,0-1.83869-1.2638,5.69317,5.69317,0,0,0-2.19608-.44471,4.663,4.663,0,0,0-2.12655.45846,3.85816,3.85816,0,0,0-1.18051.87488V23.5151a0.70831,0.70831,0,0,0-.17789-0.45846,0.583,0.583,0,0,0-.4528-0.20861H39.54582a0.56357,0.56357,0,0,0-.4528.20861,0.64363,0.64363,0,0,0-.17869.45846V39.33562a0.70894,0.70894,0,0,0,.17789.45765,0.62745,0.62745,0,0,0,.4528.18112h2.40227a0.65477,0.65477,0,0,0,.43905-0.18112,0.566,0.566,0,0,0,.19244-0.45765V33.93193a3.06941,3.06941,0,0,0,1.26218.81989,5.68742,5.68742,0,0,0,6.05216-1.37457,6.02388,6.02388,0,0,0,1.263-1.98666,6.74349,6.74349,0,0,0,.46655-2.59794,7.08394,7.08394,0,0,0-.46655-2.61088,6.28668,6.28668,0,0,0-1.2638-1.95917h0.00081Zm-2.16778,5.72226a2.69254,2.69254,0,0,1-.56277.90318,2.56884,2.56884,0,0,1-1.90823.81908,2.48586,2.48586,0,0,1-1.056-.22236,2.68769,2.68769,0,0,1-.86517-0.59673,2.96986,2.96986,0,0,1-.57651-0.90317,3.1025,3.1025,0,0,1,0-2.222,2.55818,2.55818,0,0,1,.57651-0.88943,2.89143,2.89143,0,0,1,.86517-0.61047,2.33516,2.33516,0,0,1,1.056-.22236,2.606,2.606,0,0,1,1.07055.22155,3.07005,3.07005,0,0,1,.85143.59834,2.86424,2.86424,0,0,1,.56277.88862A3.21486,3.21486,0,0,1,47.72534,29.94487Zm16.82477-7.09764H62.16239a0.58864,0.58864,0,0,0-.43905.19406,0.66546,0.66546,0,0,0-.19163.473v0.29109a3.34991,3.34991,0,0,0-1.08429-.83283,4.57,4.57,0,0,0-2.08612-.45846,5.83951,5.83951,0,0,0-4.1035,1.69477,6.25267,6.25267,0,0,0-1.318,1.98585,6.49769,6.49769,0,0,0-.49323,2.61169,6.58983,6.58983,0,0,0,.49323,2.61169A6.37158,6.37158,0,0,0,54.244,33.40394a5.62685,5.62685,0,0,0,4.08976,1.7077,4.57048,4.57048,0,0,0,2.09986-.45846,3.60172,3.60172,0,0,0,1.098-.83283v0.31939a0.63487,0.63487,0,0,0,.63069.63877h2.38772a0.69133,0.69133,0,0,0,.4528-0.18031,0.621,0.621,0,0,0,.17869-0.45846V23.5143a0.64361,0.64361,0,0,0-.17789-0.45846,0.56358,0.56358,0,0,0-.4528-0.20861H64.55011Zm-3.22458,7.0839a2.69254,2.69254,0,0,1-.56277.90318,3.09684,3.09684,0,0,1-.85062.61047,2.58246,2.58246,0,0,1-2.12735,0,2.89064,2.89064,0,0,1-.86517-0.61047,2.6893,2.6893,0,0,1-.562-0.90317,3.21487,3.21487,0,0,1,0-2.20821,2.62746,2.62746,0,0,1,.56277-0.88943,2.95583,2.95583,0,0,1,.86436-0.61047,2.58258,2.58258,0,0,1,2.12655,0,3.04114,3.04114,0,0,1,.85143.59673,3.13844,3.13844,0,0,1,.56277.88943A3.09613,3.09613,0,0,1,61.32552,29.93112Zm27.03622-1.43117a3.87632,3.87632,0,0,0-1.16677-.7075,8.1293,8.1293,0,0,0-1.39964-.41722l-1.82576-.36062a2.14214,2.14214,0,0,1-.97433-0.36143,0.5757,0.5757,0,0,1-.24661-0.45846,0.58508,0.58508,0,0,1,.34284-0.4997,1.84615,1.84615,0,0,1,1.01556-.22236,3.49958,3.49958,0,0,1,1.3584.27734,7.68436,7.68436,0,0,1,1.19426.63877,0.91766,0.91766,0,0,0,1.30342-.097l0.87892-.99939a0.975,0.975,0,0,0,.27491-0.625,0.85709,0.85709,0,0,0-.3299-0.625,6.88934,6.88934,0,0,0-1.74328-1.0002,7.5388,7.5388,0,0,0-2.93673-.51425,6.74592,6.74592,0,0,0-2.09986.30564,5.07217,5.07217,0,0,0-1.60582.83283A3.68067,3.68067,0,0,0,79.372,24.93091a3.57144,3.57144,0,0,0-.35658,1.54195,3.26646,3.26646,0,0,0,.89185,2.38852,4.40826,4.40826,0,0,0,2.34728,1.18052l1.89368,0.41722a4.67075,4.67075,0,0,1,1.208.37518,0.56371,0.56371,0,0,1,.34284.52719,0.704,0.704,0,0,1-.34284.57,1.95449,1.95449,0,0,1-1.11179.27734,3.27551,3.27551,0,0,1-1.49586-.33313,5.49174,5.49174,0,0,1-1.22095-.80534,1.64708,1.64708,0,0,0-.54983-0.30564,0.8279,0.8279,0,0,0-.76814.2361l-1.04306.79159a0.92743,0.92743,0,0,0-.37033.91692,1.935,1.935,0,0,0,.87811,1.09723,7.7162,7.7162,0,0,0,4.46008,1.31959,7.27151,7.27151,0,0,0,2.18233-.30564,5.52256,5.52256,0,0,0,1.68749-.84738,3.86822,3.86822,0,0,0,1.098-1.30584,3.67333,3.67333,0,0,0,.38407-1.62523,3.37013,3.37013,0,0,0-.3016-1.4716,3.75014,3.75014,0,0,0-.82312-1.06974V28.5h0Zm10.42977,2.88984A0.69294,0.69294,0,0,0,98.27,31.0421a1.0921,1.0921,0,0,0-.61775.19406,1.96484,1.96484,0,0,1-.97433.32019,1.421,1.421,0,0,1-.34284-0.042,0.62826,0.62826,0,0,1-.31534-0.16657,1.15624,1.15624,0,0,1-.26117-0.36062,1.69159,1.69159,0,0,1-.11-0.63877V26.0144h3.10168a0.69538,0.69538,0,0,0,.48029-0.20861,0.62261,0.62261,0,0,0,.20618-0.45846V23.5151a0.625,0.625,0,0,0-.20618-0.47221,0.67354,0.67354,0,0,0-.46655-0.19406H95.66234V19.88947a0.5951,0.5951,0,0,0-.19163-0.47221,0.65818,0.65818,0,0,0-.43986-0.18031h-2.4152a0.6606,0.6606,0,0,0-.46655.18031,0.67759,0.67759,0,0,0-.20538.47221v2.95937h-1.373a0.56357,0.56357,0,0,0-.4528.2078,0.70831,0.70831,0,0,0-.17789.45846v1.833a0.70678,0.70678,0,0,0,.17789.45846,0.52558,0.52558,0,0,0,.4528.20861h1.373v5.153a4.156,4.156,0,0,0,.35658,1.778,3.46237,3.46237,0,0,0,2.22276,1.87508,4.95256,4.95256,0,0,0,1.49666.22236,6.25021,6.25021,0,0,0,1.96241-.32019,3.88273,3.88273,0,0,0,1.55084-.9719,0.80776,0.80776,0,0,0,.08166-1.02769Zm13.07865-8.54256h-2.38772a0.58864,0.58864,0,0,0-.43905.19406,0.66465,0.66465,0,0,0-.19244.473v0.29109a3.33938,3.33938,0,0,0-1.0843-.83283,4.58459,4.58459,0,0,0-2.09905-.45846,5.78291,5.78291,0,0,0-4.08976,1.69477,6.03837,6.03837,0,0,0-1.318,1.98585,6.48229,6.48229,0,0,0-.494,2.59713,6.59475,6.59475,0,0,0,.494,2.61169,6.37877,6.37877,0,0,0,1.30423,1.98585,5.66486,5.66486,0,0,0,4.076,1.72226,4.75761,4.75761,0,0,0,2.09905-.44471,3.58231,3.58231,0,0,0,1.098-.83283v0.30564a0.64665,0.64665,0,0,0,.186.45037,0.63312,0.63312,0,0,0,.44553.1884h2.40146a0.63069,0.63069,0,0,0,.63149-0.625V23.5151a0.64282,0.64282,0,0,0-.17869-0.45846,0.56277,0.56277,0,0,0-.4528-0.20861V22.84722Zm-3.22458,7.0839a2.70057,2.70057,0,0,1-.56277.90317,3.09678,3.09678,0,0,1-.85143.61047,2.35052,2.35052,0,0,1-1.06974.22236,2.71264,2.71264,0,0,1-1.0568-.22236,2.89143,2.89143,0,0,1-.86517-0.61047,2.70057,2.70057,0,0,1-.56277-0.90317,3.21973,3.21973,0,0,1,0-2.20821,2.644,2.644,0,0,1,.56277-0.88943,2.97037,2.97037,0,0,1,.86517-0.61047,2.488,2.488,0,0,1,1.0568-.22236,2.60494,2.60494,0,0,1,1.06974.22155,3.05823,3.05823,0,0,1,.85143.59834,2.63328,2.63328,0,0,1,.56277.88862A2.96745,2.96745,0,0,1,108.64558,29.93112ZM124.97712,31.237l-1.373-1.056a0.72983,0.72983,0,0,0-.72691-0.18031,1.47163,1.47163,0,0,0-.50779.36143,4.87578,4.87578,0,0,1-1.04305.94441,2.36656,2.36656,0,0,1-1.33172.31939,2.55913,2.55913,0,0,1-1.4999-.46493,2.60685,2.60685,0,0,1-.95654-1.25733,3.27147,3.27147,0,0,1-.19163-1.08349,3.09736,3.09736,0,0,1,.19163-1.111,2.48283,2.48283,0,0,1,.549-0.88943,2.8017,2.8017,0,0,1,.85062-0.59753,2.56721,2.56721,0,0,1,1.07055-.23529,2.47422,2.47422,0,0,1,1.33172.33313,4.53607,4.53607,0,0,1,1.04305.94441,1.42936,1.42936,0,0,0,.494.36143,0.6997,0.6997,0,0,0,.71316-0.18112l1.373-1.04144a0.87867,0.87867,0,0,0,.35658-0.47221,0.74631,0.74631,0,0,0-.055-0.63877,5.943,5.943,0,0,0-2.11361-1.98666,6.42766,6.42766,0,0,0-3.1979-.77785,6.60041,6.60041,0,0,0-2.48394.486,6.18548,6.18548,0,0,0-2.01738,1.33414,5.94864,5.94864,0,0,0-1.34466,1.9996,6.59311,6.59311,0,0,0,0,4.959,5.95894,5.95894,0,0,0,1.34466,1.98585,6.66064,6.66064,0,0,0,7.69922,1.04144,5.90827,5.90827,0,0,0,2.12735-1.9996,0.7164,0.7164,0,0,0,.055-0.625A0.94359,0.94359,0,0,0,124.97712,31.237Zm12.70752,2.4718-3.77361-5.542,3.22539-4.2636a0.79077,0.79077,0,0,0,.13665-0.69537,0.55045,0.55045,0,0,0-.6032-0.34688h-2.55266a1.12391,1.12391,0,0,0-.42611.097,0.85549,0.85549,0,0,0-.37032.36143l-2.58015,3.61189h-0.61776V18.38876a0.642,0.642,0,0,0-.17789-0.45846,0.6307,0.6307,0,0,0-.4528-0.18031h-2.38852a0.69213,0.69213,0,0,0-.4528.18031,0.58217,0.58217,0,0,0-.19163.45846v15.751a0.61,0.61,0,0,0,.19163.45846,0.62908,0.62908,0,0,0,.4528.18031h2.38852a0.69213,0.69213,0,0,0,.4528-0.18031,0.642,0.642,0,0,0,.17789-0.45846V29.97317h0.68648l2.813,4.31939a0.94167,0.94167,0,0,0,.82393.4997h2.67637a0.61681,0.61681,0,0,0,.64443-0.36062A0.7544,0.7544,0,0,0,137.68464,33.70877Zm-59.561-10.86155H75.44724a0.6889,0.6889,0,0,0-.53528.20861,0.9525,0.9525,0,0,0-.24661.44471l-1.977,7.36124H72.20891l-2.1128-7.36124a1.24514,1.24514,0,0,0-.20618-0.431,0.61128,0.61128,0,0,0-.48029-0.22236H66.637a0.6348,0.6348,0,0,0-.67192.34769,1.0583,1.0583,0,0,0,0,.65252l3.38953,10.3481a1.01476,1.01476,0,0,0,.26117.41641,0.67486,0.67486,0,0,0,.507.18031h1.42794L71.427,35.1262l-0.31534.95816a1.593,1.593,0,0,1-.52153.74955,1.27754,1.27754,0,0,1-.79644.2644,1.77084,1.77084,0,0,1-.71316-0.15363,2.92545,2.92545,0,0,1-.63149-0.37437,1.043,1.043,0,0,0-.604-0.19406H67.81755a0.73418,0.73418,0,0,0-.604.37437l-0.85062,1.25005a0.76047,0.76047,0,0,0,.06873,1.08349,4.334,4.334,0,0,0,1.57834.93067,6.209,6.209,0,0,0,2.01739.33313,4.54569,4.54569,0,0,0,3.03214-.99939,5.71418,5.71418,0,0,0,1.71579-2.695l3.92562-12.80616a0.96815,0.96815,0,0,0,.01374-0.68082,0.57187,0.57187,0,0,0-.59026-0.31939H78.12361Z" style="fill:#011b33"/></g></svg>