<?xml version="1.0" encoding="utf-8"?>
<!-- Generator: Adobe Illustrator 19.2.1, SVG Export Plug-In . SVG Version: 6.00 Build 0)  -->
<svg version="1.1" id="Layer_1" xmlns="http://www.w3.org/2000/svg" xmlns:xlink="http://www.w3.org/1999/xlink" x="0px" y="0px"
	 viewBox="0 0 100 60" style="enable-background:new 0 0 100 60;" xml:space="preserve">
<style type="text/css">
	.st0{fill:#32325D;}
</style>
<title>Stripe-light</title>
<desc>Created with Sketch.</desc>
<g>
	<path class="st0" d="M80.8,30.4c0-4.4-2.1-7.8-6.2-7.8c-4.1,0-6.5,3.5-6.5,7.8c0,5.2,2.9,7.8,7.1,7.8c2,0,3.6-0.5,4.7-1.1v-3.4
		c-1.2,0.6-2.5,0.9-4.2,0.9c-1.7,0-3.1-0.6-3.3-2.6h8.4C80.8,31.7,80.8,30.8,80.8,30.4z M72.4,28.8c0-1.9,1.2-2.7,2.3-2.7
		c1,0,2.2,0.8,2.2,2.7H72.4z"/>
	<path class="st0" d="M61.5,22.6c-1.7,0-2.8,0.8-3.4,1.3l-0.2-1.1h-3.8v20l4.3-0.9l0-4.8c0.6,0.4,1.5,1.1,3,1.1
		c3.1,0,5.9-2.5,5.9-7.9C67.3,25.3,64.5,22.6,61.5,22.6z M60.5,34.4c-1,0-1.6-0.4-2-0.8l0-6.3c0.4-0.5,1.1-0.8,2-0.8
		c1.6,0,2.6,1.7,2.6,4C63.1,32.7,62,34.4,60.5,34.4z"/>
	<polygon class="st0" points="48.3,21.6 52.6,20.7 52.6,17.2 48.3,18.1 	"/>
	<rect x="48.3" y="22.9" class="st0" width="4.3" height="15"/>
	<path class="st0" d="M43.7,24.1l-0.3-1.3h-3.7v15H44V27.7c1-1.3,2.7-1.1,3.3-0.9v-3.9C46.7,22.7,44.7,22.3,43.7,24.1z"/>
	<path class="st0" d="M35.1,19.2l-4.2,0.9l0,13.7c0,2.5,1.9,4.4,4.4,4.4c1.4,0,2.4-0.3,3-0.6v-3.5c-0.5,0.2-3.3,1-3.3-1.5v-6.1h3.3
		v-3.6h-3.3L35.1,19.2z"/>
	<path class="st0" d="M23.5,27.2c0-0.7,0.5-0.9,1.5-0.9c1.3,0,2.9,0.4,4.2,1.1v-4c-1.4-0.6-2.8-0.8-4.2-0.8c-3.5,0-5.8,1.8-5.8,4.8
		c0,4.7,6.5,4,6.5,6c0,0.8-0.7,1-1.6,1c-1.4,0-3.2-0.6-4.7-1.4v4.1c1.6,0.7,3.2,1,4.7,1c3.6,0,6-1.8,6-4.8
		C30,28.2,23.5,29.1,23.5,27.2z"/>
</g>
</svg>
