<?xml version="1.0" encoding="utf-8"?>
<!-- Generator: Adobe Illustrator 19.2.1, SVG Export Plug-In . SVG Version: 6.00 Build 0)  -->
<svg version="1.1" id="Layer_1" xmlns="http://www.w3.org/2000/svg" xmlns:xlink="http://www.w3.org/1999/xlink" x="0px" y="0px"
	 viewBox="0 0 148 58" style="enable-background:new 0 0 148 58;" xml:space="preserve">
<style type="text/css">
	.st0{fill:#222220;}
	.st1{fill:#DEE0E1;}
	.st2{fill:#FFFFFF;}
	.st3{fill:#FCE527;}
</style>
<title>instamojo</title>
<g id="_7">
	<path class="st0" d="M54.2,29h-3.5v-2.2h9.6V29h-3.5v6h-2.6L54.2,29z"/>
	<path class="st0" d="M70.1,26.8V35h-2.5v-4.7L63.4,35h-2.2v-8.1h2.5v4.7l4.3-4.7L70.1,26.8z"/>
	<path class="st0" d="M74.4,35h-2.5v-8.1h2.5v3h4v-3h2.5V35h-2.5v-3h-4V35z"/>
	<path class="st0" d="M82.7,35v-8.1h2.5V29h2.6c0.6,0,1.2,0,1.8,0.2c1.2,0.4,1.9,1.5,1.8,2.7c0,1.3-0.8,2.5-2.1,2.8
		c-0.5,0.1-1,0.2-1.6,0.2H82.7z M85.2,33h2.1c0.3,0,0.7,0,1-0.1c0.4-0.2,0.6-0.5,0.6-1c0-0.4-0.3-0.8-0.7-0.9
		c-0.3-0.1-0.6-0.1-1-0.1h-2.1L85.2,33z"/>
	<path class="st0" d="M95,35h-2.5v-8.1H95v3.1h0.7l3-3.1h3.1l-4,3.9L102,35h-3.3l-3-3.1H95L95,35z"/>
	<path class="st0" d="M112.5,30.9c0,2.4-2,4.3-5.3,4.3s-5.3-1.9-5.3-4.3s2-4.3,5.3-4.3S112.5,28.5,112.5,30.9z M109.9,30.9
		c0-1.3-1.1-2.3-2.7-2.3c-1.6,0-2.7,1-2.7,2.3s1.1,2.3,2.7,2.3S109.9,32.3,109.9,30.9z"/>
	<path class="st0" d="M125.6,30.9c0,2.3-1.9,3.5-5,3.6v0.8h-2.5v-0.8c-3.1-0.1-5-1.3-5-3.6s1.9-3.6,5-3.7v-0.8h2.5v0.8
		C123.8,27.3,125.6,28.6,125.6,30.9z M118.2,29c-1.7,0.1-2.5,0.9-2.5,2s0.8,1.8,2.5,1.9V29z M123.1,30.9c0-1.1-0.7-1.9-2.5-2v3.8
		C122.4,32.7,123.1,32,123.1,30.9z"/>
	<path class="st0" d="M138.8,30.9c0,2.3-1.9,3.5-5,3.6v0.8h-2.5v-0.8c-3.1-0.1-5-1.3-5-3.6s1.9-3.6,5-3.7v-0.8h2.5v0.8
		C137,27.3,138.8,28.6,138.8,30.9z M131.3,29c-1.7,0.1-2.5,0.9-2.5,2s0.8,1.8,2.5,1.9V29z M136.3,30.9c0-1.1-0.7-1.9-2.5-2v3.8
		C135.6,32.7,136.3,32,136.3,30.9z"/>
	<path class="st1" d="M20.7,35.6c0.4-0.4,0.8-0.5,0.8-1.4c-0.7,0.3-2.6,0.3-3.4-0.8c-0.2-0.3,0-0.5,0.2-0.2c0.5,0.6,1.5,0.3,1.9,0.2
		c-0.1-0.2-0.2-0.4-0.4-0.6c0.1-0.1,0.5-0.3,0.6-0.7c-0.3-0.1-0.7-0.2-1-0.2c0.2-0.2,0.3-0.5,0.2-0.8c-0.8,0.3-1.8-0.1-2.1-0.4
		c-0.2-0.3,0-0.6,0.2-0.4c0.4,0.4,2.4,0.9,3.2,0.2c-0.3-0.1-0.5-0.2-0.7-0.5c0.7-0.1,1.3-0.5,1.3-1c-0.5,0-0.9,0-1.4-0.2
		c0.3-0.1,0.6-0.3,0.7-0.6c-1.3-0.1-1.4-1-1.4-1.2c0.8,0.5,2.3,0.3,1.9-0.9c-0.7,0-1.4-1.2,0.5-2.2c1.7-0.9,3.7-1.9,3.5-3.6
		c-0.1-1.1-1.9-1.8-2.1-2.3c-0.7,0.3-0.9,0.7-0.5,1.4c0,0-1.6,0.2-1.8-0.9c0-0.5,0.2-0.9,0.6-1.2c-0.2,0-1.4-0.3-1.8,0.7
		c-0.7-0.5-1.3-0.5-1.7,0c0.7,0.4,1.2,1.9,2.4,2.4c-0.9,0.5-2.3,0.3-3.1-1.2c-0.8,1.2-1.2,2.3,0.4,3.6c-3,1.4-3,4-5.6,5.3
		c0.3,0.7,0.8,0.7,1.6,0.6c-1.1,1.5-0.2,3-2,3.7c0.2,0.6,0.5,1.1,1.2,0.9c-0.2,0.3-0.3,0.3-0.6,0.6c1,0.6,2.1,0.2,2.4-1.8
		c0-0.4,0.5-0.1,0.4,0.2c-1.1,2.3,1.7,4.1,0.7,5.8c0.9,0,1.6-0.1,1.9-0.4c0.2,0.3,0.3,0.7,0.2,1.1c0.4,0,0.7-0.3,0.7-0.7
		c0.3,0.9,1.5,1.9,3.3,1.9C21.1,38.6,22.1,37.2,20.7,35.6 M18.9,37.3L18.5,38c-0.2-0.4-0.3-0.8-0.6-1.2c-0.3,0.7-0.8,0.7-1.3,0.7
		c0.1-1.6-1.8-3.1-1-4.9c0.2-0.4,0.1-0.8-0.3-1c0,0,0,0,0,0c-1.3-0.7-0.7,2.1-2,2.2c0.2-0.3,0.3-0.7,0.4-1c-0.3,0.1-0.9,0.5-1.2,0
		c0.6-0.3,1-1,1.1-1.7c0.1-0.5,0.2-1,0.4-1.5c0.3-0.5,0.6-0.9,1-1.4c-0.1,0-1.6,0.3-1.9,0.2c2.5-1.6,2-3.6,5.9-5.3
		c-1-0.8-2.1-1.4-1.3-2.8c1.1,1.3,3.1,0.9,4.2,0.2c-1.1-0.2-2.5-1.2-2.8-2.2c0.4-0.1,0.9,0.4,1.2,0.6c0.1-0.4,0.2-0.9,0.7-0.9
		c-0.6,1.4,0.6,2.1,1.8,2.1c0.2,0,1-0.1,1-0.1c-0.1-0.3-0.6-0.9-0.3-1.2c0.3,0.3,0.6,0.5,1,0.7c2.3,1.8-1.1,3.4-2.5,4.2
		c-2.2,1.2-1.6,2.6-0.7,2.9c0,0.2-0.1,0.2-0.3,0.3c-0.6,0.2-1.2-0.2-1.8-0.5c0,0.9,0,1.7,0.9,2.2l-0.7,0.2c0.6,0.4,0.8,0.7,1.5,0.8
		c-0.3,0.1-0.7,0.2-1.1,0.2c0.1,0.3,0.2,0.6,0.3,0.8c-1.4,0.2-2-0.6-2.4-0.6c-0.9,0.1-0.9,1.8,1.4,1.8l-0.2,0.4
		c0.3,0.2,0.6,0.3,0.9,0.3c-0.2,0.1-0.3,0.3-0.4,0.4l0.4,0.3c-0.9,0.2-1.2-0.9-1.8-0.4c-0.9,0.7,1.1,2.3,3.1,2.1
		c-0.3,0.3-0.5,0.5-0.8,0.7c1.6,1.5,0.8,3,1.5,4C20.3,39.4,19.2,38.5,18.9,37.3"/>
	<path class="st1" d="M16.3,31.8c0.3,0.3,0.7,0.4,1.5,0.3c-0.9-0.1-1.3-0.3-1.6-0.9c0-0.3-0.1-0.6-0.1-0.9c0-1.1,0.3-2.2,0.9-3.1
		c0,1,0.8,1.9,1.9,2.1c-1.2-0.5-1.8-1.6-1.5-2.7c0.2-0.4,0.5-0.8,0.8-1.2c0.2-0.2,0.3-0.4,0.4-0.6c-0.2,0.6,0.5,1.1,1,1.2
		c-0.2-0.2-0.8-1,0.4-2.3c-0.3,0.2-0.7,0.4-1,0.6c2.2-2.4,4-2.5,4.9-3.7c-1.2,0.8-4.4,1.3-5.9,0.9c0.8,0.5,2.7,0.5,3.2,0.4
		c-1.6,1.5-5,3.1-5.6,4.5c0.5-0.6,1.3-1.1,2.1-1.3c-0.6,0.8-1,1.6-1.4,2.5c-0.9,2-2.1,2-2.2,3.6c0.4-1.3,1.3-1.6,1.8-2.4
		c-0.1,0.6-0.2,1.2-0.1,1.8c0,0.7,0.2,1.3,0.4,2c-0.1,0.8,0,2.2,0.9,3.1c-0.5-0.8-0.8-1.7-0.7-2.6c0.7,1.4,2.8,3.3,3.8,4.6
		C19.3,36,16.9,34,16.3,31.8"/>
	<path class="st1" d="M39.1,25.1c0.8,0.2,1.6,0.7,2.1,1.3c-0.6-1.4-4-3-5.6-4.5c0.5,0.1,2.4,0.1,3.2-0.4c-1.4,0.4-4.7-0.1-5.9-0.9
		c0.9,1.2,2.7,1.3,4.9,3.7c-0.3-0.2-0.7-0.4-1-0.6c1.2,1.3,0.7,2.1,0.4,2.3c0.5-0.1,1.1-0.7,1-1.2c0.1,0.2,0.3,0.4,0.4,0.6
		c0.3,0.4,0.6,0.8,0.8,1.2c0.4,1.1-0.3,2.2-1.5,2.7c1-0.1,1.8-1,1.9-2.1c0.6,0.9,0.9,2,0.9,3.1c0,0.3,0,0.6-0.1,0.9
		c-0.3,0.6-0.8,0.8-1.6,0.9c0.8,0,1.2,0,1.5-0.3c-0.5,2.2-3,4.2-4,5.9c1-1.3,3.1-3.2,3.8-4.6c0.1,0.9-0.2,1.8-0.7,2.6
		c0.9-0.9,1-2.3,0.9-3.1c0.3-0.6,0.4-1.3,0.4-2c0-0.6,0-1.2-0.1-1.8c0.6,0.8,1.4,1.1,1.8,2.4c-0.1-1.6-1.3-1.7-2.2-3.6
		C40.1,26.6,39.6,25.8,39.1,25.1"/>
	<path class="st1" d="M43.1,28.8c0.7,0.1,1.3,0.1,1.5-0.6C42,26.9,42,24.3,39,22.9c1.7-1.2,1.2-2.4,0.4-3.6
		c-0.8,1.4-2.2,1.6-3.1,1.2c1.2-0.4,1.7-1.9,2.4-2.4c-0.5-0.5-1.1-0.5-1.7,0c-0.4-1-1.6-0.7-1.8-0.7c0.4,0.3,0.6,0.7,0.6,1.2
		c-0.1,1-1.8,0.9-1.8,0.9c0.3-0.7,0.2-1.1-0.5-1.4c-0.2,0.5-2,1.3-2.1,2.3C31.2,22,33.2,23,34.9,24c1.9,1,1.2,2.1,0.5,2.2
		c-0.4,1.2,1.1,1.4,1.9,0.9c0,0.2-0.1,1.1-1.4,1.2c0.1,0.3,0.3,0.6,0.7,0.6c-0.4,0.2-0.9,0.2-1.4,0.2c0,0.5,0.6,0.9,1.3,1
		c-0.1,0.2-0.4,0.4-0.6,0.5c0.8,0.7,2.8,0.3,3.2-0.2c0.2-0.2,0.4,0.1,0.2,0.4c-0.2,0.3-1.2,0.7-2.1,0.4c-0.1,0.3,0,0.6,0.2,0.8
		c-0.3,0-0.7,0.1-1,0.2c0.1,0.3,0.5,0.5,0.6,0.7c-0.2,0.2-0.3,0.4-0.4,0.6c0.4,0.2,1.4,0.5,1.9-0.2c0.2-0.2,0.5-0.1,0.2,0.2
		c-0.8,1.1-2.7,1.1-3.4,0.8c0,0.9,0.4,1,0.8,1.4c-1.4,1.6-0.5,3-1.4,4.4c1.8,0,3-1,3.3-1.9c0,0.4,0.3,0.7,0.7,0.7
		c0-0.4,0.1-0.7,0.2-1.1c0.4,0.3,1,0.4,1.9,0.4c-1-1.7,1.8-3.4,0.7-5.8c-0.2-0.3,0.3-0.6,0.4-0.2c0.3,2,1.4,2.4,2.4,1.8
		c-0.3-0.3-0.4-0.3-0.6-0.6c0.7,0.2,1-0.3,1.2-0.9C43.3,31.8,44.2,30.3,43.1,28.8 M43.2,32.7c0.1,0.4,0.2,0.7,0.4,1
		c-1.3-0.1-0.7-2.8-2-2.2c-0.4,0.2-0.5,0.6-0.3,1c0,0,0,0,0,0c0.9,1.8-1.1,3.3-1,4.9c-0.5,0-1,0-1.3-0.7c-0.2,0.4-0.4,0.8-0.6,1.2
		l-0.4-0.7c-0.3,1.2-1.4,2.1-2.7,2.2c0.7-1-0.1-2.5,1.5-4c-0.3-0.2-0.6-0.4-0.8-0.7c2,0.2,4-1.3,3.1-2.1c-0.6-0.5-0.9,0.5-1.8,0.4
		l0.4-0.3c-0.1-0.1-0.3-0.3-0.4-0.4c0.3-0.1,0.6-0.2,0.9-0.3l-0.2-0.4c2.3,0,2.4-1.8,1.4-1.8c-0.4,0-1,0.8-2.4,0.6
		c0.2-0.2,0.3-0.5,0.3-0.8c-0.4,0-0.7-0.1-1.1-0.2c0.7-0.1,0.9-0.3,1.5-0.8l-0.7-0.2c1-0.5,0.9-1.3,0.9-2.2
		c-0.5,0.3-1.1,0.7-1.7,0.5c-0.1-0.1-0.3-0.1-0.3-0.3c0.9-0.4,1.5-1.8-0.7-2.9c-1.4-0.8-4.8-2.4-2.5-4.2c0.3-0.2,0.7-0.5,1-0.7
		c0.4,0.3-0.1,1-0.3,1.2c0,0,0.8,0.1,1,0.1c1.2,0,2.4-0.7,1.8-2.1c0.5,0.1,0.5,0.6,0.7,0.9c0.3-0.2,0.8-0.6,1.2-0.6
		c-0.3,1.1-1.7,2-2.8,2.2c1.1,0.6,3.1,1,4.2-0.2c0.7,1.4-0.3,2-1.3,2.8c3.9,1.8,3.3,3.8,5.9,5.3c-0.3,0.2-1.8-0.2-1.9-0.2
		c0.4,0.4,0.7,0.9,1,1.4c0.2,0.5,0.3,1,0.4,1.5c0.1,0.7,0.5,1.3,1.1,1.7C44.2,33.2,43.5,32.8,43.2,32.7"/>
	<path class="st1" d="M24.8,37.1l0.6-0.5l-0.1-0.2c-0.1-0.1,0-0.1,0-0.2l0.3-0.2c0.1,0,0.1-0.1,0.2,0l0.9,0.2h-0.9
		c-0.2,0-0.3,0.1-0.4,0.3l-0.1,0.1l-0.2,0.5c-0.1,0.2-0.1,0.5,0.1,0.6l0.2,0.2L25,38.6h0.3l0.2-0.5c0.2-0.2,0.3-0.4,0.4-0.7
		c-0.1-0.1-0.2-0.1-0.1-0.3l0.1-0.2c0-0.1,0-0.1,0.1-0.1l0.9,0.2c0.1,0.1,0.3,0,0.4-0.1c0.1-0.2,0.1-0.2,0.4-0.1l0.5,0.1
		c0.5,0.1,1.1,0,1.5-0.3c0.1,0.2,0.2,0.3,0.4,0.5c0,0.1,0,0.1-0.1,0.2l-0.5,1.3h0.8l0.5-1.2c0-0.1,0.1-0.2,0.2-0.2l-0.3,1.4h0.8
		l0.2-1.4c0-0.3,0-0.4-0.1-0.5c-0.3-0.3-0.3-0.9-0.4-1.2c0.1,0,0.1,0,0.2,0c0.2,0,0.3,0.5,0.5,0.7c0.4,0.6,1,1.2,1.6,0.3
		c-0.1-0.1-0.1-0.2-0.2-0.3L33.1,36c-0.1-0.1-0.6-0.7-0.8-0.9c-0.4-0.4-1-0.5-1.5-0.2c-0.6-0.3-1.3,0-1.5,0l-1.1-0.1
		c-0.1,0-0.1,0-0.2-0.1l0.2-0.1c-0.2-0.8-0.7-1.5-1.5-1.6c0,0-0.1-0.3-0.2-0.3l-0.3,0.3c-0.1,0-0.1,0-0.2,0.1l-1.1-0.4l0.8,0.8
		c0,0-0.4,0.6-0.5,0.7c-0.1,0.1-0.1,0.2,0,0.3l0.2,0.2c0.1,0.1,0.2,0.1,0.3,0l0.2-0.1c0.1-0.1,0.3,0.1,0.4,0
		c-0.1,0.2-0.1,0.4-0.1,0.6l-0.7-0.1c-0.1,0-0.2,0-0.3,0.1l-0.6,0.5c-0.2,0.2-0.3,0.5-0.1,0.7L24.8,37.1z M30.7,37.2l-0.5,1.2H30
		l0.5-1.2c0.1-0.1,0-0.2-0.2-0.4C30.4,37,30.6,37,30.7,37.2C30.8,37.1,30.8,37.2,30.7,37.2 M26,34.6l-0.1,0.1
		c-0.1,0.1-0.1,0.1-0.2,0l-0.1-0.1c0-0.1,0-0.1,0-0.2l0.6-0.7l-0.6-0.5l0.7,0.3l0.3-0.3c0.1,0.1,0.1,0.3,0.1,0.3
		c0.7,0.1,1.2,0.8,1.2,1.5c0.1,0.2,0.3,0.3,0.4,0.3l1.2,0.1c0.2,0,0.7-0.4,1.4,0c0.2-0.1,0.3-0.2,0.5-0.2c0.5,0,1,0.3,1.3,0.8
		c0.2,0.3,0.5,0.7,0.5,0.7c-0.1,0.2-0.3,0.2-0.4,0.2c-0.2-0.1-0.3-0.2-0.3-0.4c-0.1-0.2-0.2-0.4-0.4-0.6c0.1,0.2,0.2,0.4,0.2,0.6
		c-0.5-0.5-0.6-1.1-0.9-1.1c-0.2,0-0.4,0.1-0.5,0.2c0.2,0.4,0.2,0.9,0.3,1.2c0.1,0.2,0.2,0.2,0.2,0.3c0.1,0.1,0.1,0.3,0,0.4
		l-0.2,1.1h-0.3l0.2-1.1c0.1-0.3-0.9-0.3-1.4-1c-0.4,0.5-1.6,0.4-2.1,0.3c-0.2-0.1-0.4,0-0.5,0.2c-0.1,0.1-0.2,0.1-0.2,0.1l-0.9-0.2
		c-0.1,0-0.2,0-0.3,0.1c0,0,0,0,0,0l-0.2,0.4c0,0.1,0,0.2,0,0.2l0.1,0.1c0,0.1-0.1,0.2-0.2,0.3l-0.2-0.2c-0.1-0.1-0.1-0.3,0-0.4
		l0.3-0.6c0-0.1,0.1-0.1,0.2-0.1H27l-0.4-0.6c-0.3-0.4,0.2-1.2,0.1-1.5C26.7,34.8,26.1,34.5,26,34.6 M24.8,36l0.5-0.4
		c0.1-0.1,0.2-0.1,0.3-0.1l0.8,0.1c0,0.1,0.1,0.3,0.2,0.4l-0.8-0.2c-0.1,0-0.2,0-0.3,0.1l-0.4,0.3c-0.1,0.1-0.1,0.2,0,0.2l0.1,0.1
		l-0.3,0.2l-0.1-0.2C24.6,36.3,24.6,36.1,24.8,36"/>
	<path class="st1" d="M27.1,21.4c0.3,0.2,0.5,0.3,0.8,0.4v-0.4L26.8,21C26.8,21,26.8,21.2,27.1,21.4"/>
	<path class="st1" d="M27.9,21v-0.3l-1.3-0.5c0.1,0.1,0.3,0.3,0.5,0.4C27.4,20.7,27.7,20.9,27.9,21"/>
	<path class="st1" d="M27.9,20.2v-0.4l-1.4-0.5c0,0,0.3,0.2,0.6,0.5C27.4,19.9,27.7,20.1,27.9,20.2"/>
	<path class="st1" d="M32,24.9h1.5c-0.1-0.3-0.4-0.5-0.7-0.4C32.4,24.5,32.1,24.7,32,24.9"/>
	<path class="st1" d="M30.4,19.3L29,19.8v0.4c0.3-0.1,0.6-0.3,0.8-0.4C30.1,19.5,30.4,19.3,30.4,19.3"/>
	<path class="st1" d="M30.1,21L29,21.4v0.3c0.3-0.1,0.6-0.3,0.8-0.4C30.1,21.1,30.1,21,30.1,21"/>
	<path class="st1" d="M30.3,20.2L29,20.6V21c0.3-0.1,0.6-0.3,0.8-0.4C30,20.4,30.2,20.3,30.3,20.2"/>
	<path class="st1" d="M24.2,24.5c-0.3,0-0.6,0.1-0.7,0.4H25C24.8,24.7,24.5,24.5,24.2,24.5"/>
	<path class="st1" d="M31.4,18.4c0-0.8-1.4-1.6-2.9-1.6c-1.5,0-2.9,0.7-2.9,1.6l0,0.2l0.6,3.5l-2.9,1.7c-0.4,0.3-0.7,0.7-0.7,1.2
		h0.5c0.1-0.6,0.6-1,1.2-1c0.7,0,1.1,0.4,1.5,1l0.1,0.2l0.1,0.2h-4.2c0.4,0.6,0.6,1.3,0.6,2v8.8c0,2.3,1.7,3.3,3.6,3.3
		c1.5,0,1.7-0.1,2.5,0.7c0.8-0.8,1-0.7,2.5-0.7c1.9,0,3.6-1.1,3.6-3.3v-8.8c0-0.7,0.2-1.4,0.6-2h-4.2l0.1-0.2l0.1-0.2
		c0.4-0.6,0.8-1,1.5-1c0.6,0,1.1,0.4,1.2,1h0.5c-0.1-0.5-0.3-0.9-0.7-1.2l-2.9-1.7l0.6-3.5L31.4,18.4z M26.2,18.8l2.1,0.7v3.4
		L26.7,22L26.2,18.8z M26.7,25.9c0.3,0.4,0.8,0.7,1.3,0.8c0.1,0.2,0.2,0.5,0.4,0.6c-0.1,0.6,0.2,1.2,0.8,1.3c0,0,0,0,0,0
		c0.1,0.3,0.3,0.6,0.6,0.6l-0.4,0.5C29.1,30,28.9,30,28.7,30l-2-0.2c0.1-0.2-0.1-0.5-0.8-0.4l0.8-2.2l-0.5-1L25.3,27l-0.1,2.3
		l-0.4-0.2c-0.5-0.2-0.7,0.7-0.2,0.7h0.2c0,0.1,0,0.2,0.1,0.2c-0.1,0-0.1,0.1-0.1,0.2c0,0,0,0,0.1,0.1c-0.1,0-0.1,0.2-0.1,0.3
		c0,0,0,0,0,0c-0.1,0.2-0.1,0.5,0.1,0.6c0,0,0.1,0,0.1,0c0.3,0.1,0.5-0.2,0.5-0.4l3.1,1c0.4,0.1,0.8,0,1.1-0.3l0.8-0.7
		c-0.1,0.4,0.1,0.8,0.4,1c0,0.2,0,0.4,0,0.6H23v-5.1c0-0.5-0.1-1-0.3-1.4L26.7,25.9z M30,27.9c-0.2,0.3-0.2,0.7,0,1L30,29
		c-0.6-0.1-0.8-0.9-0.8-0.9c0,0.1,0,0.2,0,0.2c-0.4-0.1-0.6-0.5-0.5-0.9c0.1,0.1,0.3,0.1,0.4,0.1l0-0.3c-0.3,0-0.6-0.3-0.7-0.6h-0.1
		h0.2c0.2,0,0.5,0,0.7-0.1c0.2,0.3,0.5,0.4,0.8,0.4C29.9,27.3,29.9,27.6,30,27.9 M30.9,30.2c-0.1,0.1-0.1,0.2-0.1,0.3l-0.3,0.3
		c0-0.5-0.2-1-0.5-1.3l0.3-0.3l0.1,0.1C30.2,29.6,30.4,30,30.9,30.2C30.9,30.1,30.9,30.1,30.9,30.2 M29.3,30l0.3-0.3
		c0.4,0.3,0.6,0.8,0.5,1.3l-0.3,0.3c-0.1,0.1-0.1,0.1-0.2,0.1C29.8,30.9,29.6,30.4,29.3,30 M28.7,30.2L28.7,30.2c0.1,0,0.2,0,0.3,0
		c0.3,0.4,0.3,0.9,0.1,1.4c-0.1,0-0.3,0-0.4-0.1l-0.1,0C28.8,31.1,28.9,30.6,28.7,30.2 M28.1,30.2l0.4,0c0.1,0.4,0,0.8-0.2,1.2
		l-0.4-0.1C28,30.9,28.1,30.5,28.1,30.2 M27.3,30.1l0.5,0.1c0,0.4,0,0.7-0.2,1L27.1,31C27.2,30.7,27.3,30.4,27.3,30.1 M25.4,29.9
		c-0.1,0.1-0.2,0-0.3-0.1c0,0,0-0.1,0-0.1c0.2-0.1,0.5-0.1,0.7,0c0.1,0.1,0.2,0.3,0.4,0.4c0,0.2-0.1,0.4-0.1,0.6
		c-0.2,0-0.4-0.2-0.4-0.4c0-0.1,0-0.2,0.1-0.3C25.7,29.9,25.5,29.9,25.4,29.9 M25.1,30.8c0.1,0,0.2,0.1,0.3,0.1
		c0,0.1-0.1,0.2-0.2,0.2c0,0,0,0,0,0C25.1,31,25.1,30.9,25.1,30.8C25.1,30.8,25.1,30.8,25.1,30.8 M24.7,29.6c-0.1,0-0.1-0.1-0.1-0.2
		c0,0,0.1-0.1,0.1-0.1c0.1,0,0.3,0.1,0.5,0.2C25,29.6,24.9,29.6,24.7,29.6 M25.1,30.4c0.1,0.1,0.4,0.1,0.4,0.1v0.1
		C25.4,30.7,25,30.7,25.1,30.4 M25.5,30.3c-0.2,0.1-0.4,0-0.3-0.2c0.1,0.1,0.4,0,0.4,0L25.5,30.3z M25.8,27.9l-0.4,1.4l0.1-2.2
		l0.6-0.5l0.3,0.7l-0.8,2.2L25.8,27.9C25.9,27.8,25.8,27.8,25.8,27.9 M25.8,29.6c0.2,0,0.4,0,0.5,0c0.1,0,0,0.2-0.1,0.2
		C26.1,29.8,26,29.7,25.8,29.6 M26.5,30l0.5,0.1c0,0.3,0,0.6-0.2,0.9l-0.4-0.1C26.4,30.5,26.5,30.2,26.5,30 M33.9,36.1
		c0,1-0.5,1.9-1.3,2.3l0.3-0.6h-0.3l-0.4,0.8c-0.4,0.2-0.9,0.2-1.3,0.2c-1.5,0-1.9,0.1-2.5,0.6c-0.6-0.6-1-0.6-2.5-0.6
		c-0.5,0-0.9-0.1-1.3-0.2l0,0l0.4-0.8h-0.3l-0.3,0.7c-0.1,0-0.2-0.1-0.2-0.1l0.3-0.6h-0.3L24,38.3c-0.7-0.5-1.1-1.3-1-2.1v-3.4h11
		V36.1z M34.2,25.9c-0.2,0.4-0.3,0.9-0.3,1.4v5.1h-0.6c-0.2-0.3-0.4-0.7-0.5-1.1c-0.1,0.4,0,0.8,0.2,1.1h-0.8
		c-0.2-0.4-0.3-0.8-0.3-1.2c-0.2,0.3-0.1,1,0.1,1.2h-0.5c0-0.3,0-0.5,0.1-0.8c-0.3-0.1-0.6-0.2-0.6-0.5c0.1,0.1,0.2,0.2,0.4,0.1
		l0.2-0.2c-0.7,0-0.8-0.8-0.2-1.1c-0.6,0-1-0.3-0.8-0.9c-0.4-0.3-0.5-0.8-0.3-1.2c0,0,0,0,0,0c-0.2-0.3-0.3-0.7-0.1-1
		c-0.3,0-0.6-0.1-0.8-0.3h0c0.3-0.1,0.6-0.4,0.9-0.7L34.2,25.9z M32.1,23.4c-0.6,0.1-1.1,0.8-1.5,1.5l0,0.1h-0.4v0.1
		c0,0.5-0.5,1.2-1.6,1.2c-0.4,0-0.8-0.1-1.1-0.4c-0.2-0.2-0.3-0.4-0.4-0.6c0-0.1,0-0.1,0-0.2V25h-0.4l-0.1-0.1
		c-0.4-0.7-0.9-1.4-1.5-1.5l1.6-0.9l2,1.1l2-1.1L32.1,23.4z M30.2,22l-1.6,0.8v-3.4l2.1-0.7L30.2,22z M28.5,19.1l-2.3-0.9
		c0.2-0.5,1.1-0.9,2.3-0.9s2.1,0.4,2.3,0.9L28.5,19.1z"/>
	<path class="st1" d="M33.7,29.2V29c-0.8,0-1-1-1-1c-0.1,0.5,0.1,1,0.7,1.2C33.5,29.2,33.6,29.2,33.7,29.2"/>
	<path class="st1" d="M32.7,30.8l-0.1-0.2c-0.7,0.2-1-0.9-1-0.9c-0.1,0.5,0.1,1,0.6,1.1C32.4,30.8,32.5,30.8,32.7,30.8"/>
	<path class="st1" d="M33.2,29.8C32.4,29.9,32,29,32,29c-0.1,0.5,0.2,1,0.7,1.1c0,0,0,0,0.1,0c-0.1,0.4,0.2,0.8,0.5,0.8
		c0.2,0,0.3,0,0.5-0.1l-0.1-0.2c-0.3,0.1-0.6,0-0.7-0.3C33,30.2,33,30,33.2,29.8"/>
	<path class="st1" d="M32.7,27.1v-0.3c-1.1-0.2-1-1-1-1c-0.1,0.5,0.2,1,0.7,1.2C32.5,27.1,32.6,27.1,32.7,27.1"/>
	<polygon class="st1" points="25.9,37.8 25.6,38.6 25.8,38.6 26.2,37.8 	"/>
	<polygon class="st1" points="26.5,37.8 26.1,38.6 26.4,38.6 26.8,37.8 	"/>
	<polygon class="st1" points="28.8,37.8 28.4,38.6 28.7,38.6 29.1,37.8 	"/>
	<polygon class="st1" points="29.4,37.8 29,38.6 29.3,38.6 29.7,37.8 	"/>
	<polygon class="st1" points="28.2,37.8 27.9,38.6 28.1,38.6 28.5,37.8 	"/>
	<polygon class="st1" points="31.6,38.6 31.9,38.6 32.3,37.8 32,37.8 	"/>
	<polygon class="st1" points="27.1,37.8 26.7,38.6 27,38.6 27.4,37.8 	"/>
	<polygon class="st1" points="27.7,37.8 27.3,38.6 27.6,38.6 28,37.8 	"/>
	<path class="st1" d="M26.4,33.7c-0.1,0-0.1,0-0.1,0.1c0,0.1,0,0.1,0.1,0.1c0.1,0,0.1,0,0.1-0.1c0,0,0,0,0,0
		C26.5,33.8,26.4,33.7,26.4,33.7"/>
	<path class="st1" d="M28.5,16.3c0.9,0,1.9,0.3,2.6,0.8c0.1-0.6,0.4-1.2,0.7-1.8l-1,0.1l-0.5-1.1l-1,0.5L28.5,14l-0.9,0.9l-1-0.5
		l-0.5,1.1l-0.9-0.1c0.3,0.5,0.6,1.1,0.7,1.8C26.6,16.5,27.5,16.3,28.5,16.3 M26.3,15.9l0.5-1l0.9,0.4l0.9-0.9l0.9,0.9l0.9-0.4
		l0.4,1l0.6-0.1c-0.1,0.3-0.3,0.5-0.4,0.8c-1.5-0.8-3.3-0.8-4.8,0c-0.1-0.3-0.2-0.6-0.4-0.8L26.3,15.9z"/>
	<path class="st1" d="M29.4,14.4c0.1,0,0.3-0.1,0.3-0.2c0,0,0,0,0,0c0-0.2-0.1-0.3-0.2-0.5c0,0-0.3,0.3-0.3,0.5
		C29.2,14.3,29.3,14.4,29.4,14.4"/>
	<path class="st1" d="M31,15c0.1,0.1,0.3,0,0.3-0.1c0-0.2,0-0.4,0-0.5c0,0-0.4,0.2-0.5,0.3C30.8,14.7,30.9,14.9,31,15"/>
	<path class="st1" d="M27.5,14.4c0.1,0,0.2-0.1,0.2-0.3c0-0.1-0.3-0.5-0.3-0.5c-0.1,0.2-0.2,0.3-0.2,0.5
		C27.2,14.3,27.3,14.4,27.5,14.4"/>
	<path class="st1" d="M25.9,15c0.1-0.1,0.2-0.2,0.1-0.3c-0.1-0.1-0.5-0.3-0.5-0.3c0,0.2,0,0.4,0,0.5C25.6,15,25.8,15,25.9,15
		C25.9,15,25.9,15,25.9,15"/>
	<path class="st1" d="M44.6,23.5c0.3-0.1,0.6-0.4,0.7-0.7c-0.9-0.1-3.1-1.1-4.9-0.3c0.7-0.7,1.3-0.7,1.4-1.7c0.3,0.3,0.7,0.2,0.9,0
		c0,0,0.1-0.1,0.1-0.1c-0.2-0.6-0.7-0.1-0.7-0.3c-0.1-0.2,0.6,0.1,0.8-0.7c-0.5-0.2-0.7,0.3-0.8,0.2c-0.1-0.1,0.3-0.3,0-0.9
		c-0.6,0.3-0.3,0.7-0.4,0.7c-0.1,0,0-0.4-0.7-0.4c-0.1,0.7,0.6,0.7,0.5,0.8c-0.1,0.1-0.3-0.4-0.8-0.1c0,0.4,0.3,0.7,0.6,0.7
		c0.1,0,0.2,0,0.3,0c-0.1,1-1,0.9-1.7,2c1.5,0.8,2.2,2.1,3.1,3c0.3-0.4,0.6-0.7,0.8-1.2c0.5,0.5,1.2,0.5,1.7,0c0,0,0,0,0,0
		C45.2,24.3,45.2,24,44.6,23.5 M43.2,23.7c0.2,0.5,0.2,1.2-0.2,1.6c-0.4-1-1.1-1.8-1.9-2.5c-0.1-0.1,0.1-0.2,0.5-0.3
		c1.2-0.2,2.5,0.3,3.1,0.4c-0.2,0.2-0.5,0.3-0.9,0.4c0.4,0.3,0.8,0.7,1,1.1C44.4,24.6,44.2,24.3,43.2,23.7"/>
	<path class="st1" d="M33.6,40.9v-1.3c-1.2,0.5-2.5,0.9-3.8,1l-0.1,0.4c0.1,0,0.3,0,0.5,0.1c-0.6,0.1-1.2,0.1-1.8,0.1
		c-0.6,0-1.2,0-1.8-0.1c0.2,0,0.4,0,0.5-0.1l-0.1-0.4c-1.3-0.1-2.6-0.4-3.8-1v1.3L22,41.5c1.1,0.5,2.2,1,3.4,1.3l-0.2,0.5
		c2.1,0.6,4.3,0.6,6.4,0l-0.2-0.5c1.2-0.3,2.3-0.7,3.4-1.3L33.6,40.9z M22.7,41.5l0.9-0.4v-1c0.8,0.3,1.6,0.5,2.4,0.7l-0.5,1.6
		C24.6,42.2,23.6,41.9,22.7,41.5 M28.5,43.4c-1,0-1.9-0.1-2.8-0.4l0.5-1.7c0.8,0.1,1.5,0.2,2.3,0.2c0.8,0,1.5-0.1,2.3-0.2l0.5,1.7
		C30.4,43.2,29.4,43.4,28.5,43.4 M31.4,42.4l-0.5-1.6c0.8-0.2,1.6-0.4,2.4-0.7v1l0.9,0.4C33.3,41.9,32.4,42.2,31.4,42.4"/>
	<path class="st1" d="M13.1,24.6c0.2,0.4,0.5,0.8,0.8,1.2c0.9-0.9,1.6-2.3,3.1-3c-0.7-1.2-1.7-1-1.7-2c0.4,0.1,0.8-0.1,0.9-0.5
		c0-0.1,0-0.2,0-0.2c-0.5-0.3-0.6,0.3-0.8,0.1s0.5-0.1,0.5-0.8c-0.6,0-0.5,0.4-0.7,0.4s0.2-0.4-0.4-0.7c-0.3,0.6,0.1,0.8,0,0.9
		c-0.1,0.1-0.3-0.3-0.8-0.2c0.1,0.7,0.9,0.4,0.8,0.7c-0.1,0.2-0.5-0.3-0.7,0.3c0.2,0.3,0.6,0.4,0.9,0.3c0.1,0,0.1-0.1,0.1-0.1
		c0.1,0.9,0.7,1,1.4,1.7c-1.8-0.8-4.1,0.2-4.9,0.3c0.1,0.3,0.4,0.6,0.7,0.7c-0.5,0.5-0.5,0.7-0.9,1.1C11.4,24.6,12.1,25.4,13.1,24.6
		 M12.1,24.5c0.3-0.4,0.6-0.8,1-1.1c-0.3,0-0.6-0.2-0.9-0.4c0.6-0.2,2-0.7,3.1-0.4c0.4,0.1,0.6,0.2,0.5,0.3
		c-0.8,0.7-1.5,1.5-1.9,2.5c-0.3-0.5-0.4-1.1-0.2-1.6C12.8,24.3,12.5,24.6,12.1,24.5"/>
	<path class="st1" d="M27.7,23.9v0.6c0.2-0.1,0.4-0.2,0.6-0.2v0.8c0,0.2-0.1,0.4-0.2,0.6h0.8c-0.1-0.2-0.2-0.4-0.2-0.6v-0.8
		c0.2,0,0.4,0,0.6,0.2v-0.6L27.7,23.9L27.7,23.9z"/>
	<path class="st2" d="M46,24.1c-0.1-0.1-0.2-0.2-0.2-0.3l-0.1-0.2c0.1-0.2,0.3-0.4,0.3-0.6l0.4-0.8l-0.9-0.1c-0.1,0-0.4-0.1-0.7-0.2
		c-0.7-0.2-1.3-0.3-2-0.4c0.3-0.1,0.5-0.3,0.6-0.6l0.1-0.3c0,0,0-0.4-0.2-0.5c0.1-0.1,0.1-0.2,0.1-0.4l0.1-0.6L43,19.1
		c-0.1,0-0.2-0.1-0.3-0.1c0-0.1-0.1-0.2-0.1-0.3l-0.3-0.6l-0.6,0.4c-0.1,0.1-0.3,0.2-0.4,0.3c-0.1,0-0.2,0-0.3,0
		c-0.2,0-0.5,0-0.7,0.1l-0.5-0.5l-0.6-0.6c-0.5-0.6-1.3-0.8-2-0.5c-0.4-0.4-0.9-0.5-1.4-0.5c-0.2,0-0.4,0-0.6,0
		c-0.5,0.1-1,0.3-1.5,0.7l-0.6-0.3c-0.3,0.4-0.7,0.7-1.2,0.9c-0.1-0.2-0.1-0.4-0.3-0.6l0-0.2c0.1-0.5,0.3-1,0.6-1.5l0.8-1.2L32,14.7
		c0-0.1,0-0.3,0-0.4l-0.1-0.9l-0.9,0.4c-0.1,0-0.2,0.1-0.2,0.1l-0.2-0.4l-0.4,0.2c0-0.1-0.1-0.2-0.2-0.3l-0.4-0.8L29,13.2
		c-0.1,0.1-0.1,0.1-0.2,0.2L28.5,13l-0.4,0.4c0-0.1-0.1-0.1-0.2-0.2l-0.6-0.7l-0.4,0.8c-0.1,0.1-0.1,0.2-0.2,0.3l-0.4-0.2l-0.2,0.4
		l-0.2-0.1L25,13.3l-0.1,0.9c0,0.1,0,0.3,0,0.4l-1.1-0.1l0.8,1.2c0.3,0.5,0.5,1,0.6,1.5l0,0.2c-0.1,0.2-0.2,0.4-0.3,0.6
		c-0.4-0.2-0.8-0.5-1.1-0.9l-0.7,0.3c-0.6-0.5-1.3-0.7-2-0.7c-0.5,0-1,0.2-1.4,0.5c-0.7-0.3-1.5-0.1-2,0.5c0,0-0.4,0.4-0.6,0.6
		c-0.2,0.2-0.4,0.3-0.6,0.4c-0.3-0.1-0.6-0.1-0.9,0c-0.1-0.1-0.2-0.2-0.4-0.3l-0.6-0.3l-0.3,0.6c-0.1,0.1-0.1,0.2-0.1,0.3
		c-0.1,0-0.2,0-0.3,0.1l-0.6,0.2l0.1,0.6c0,0.1,0.1,0.3,0.1,0.4c0,0.1-0.1,0.1-0.1,0.2l-0.1,0.3l0.1,0.3c0.1,0.3,0.4,0.5,0.6,0.6
		c-0.7,0.1-1.3,0.2-2,0.4c-0.3,0.1-0.5,0.1-0.7,0.2l-0.9,0.1l0.2,0.5l0.2,0.4c0.1,0.2,0.2,0.4,0.3,0.6c-0.1,0.2-0.3,0.3-0.4,0.5
		l-0.4,0.5l0.4,0.5c0.3,0.4,0.8,0.6,1.3,0.6c0.2,0,0.4,0,0.6-0.1c0.2,0.3,0.4,0.6,0.7,0.8c-0.4,0.5-1,0.9-1.6,1.2l-0.6,0.3l0.2,0.6
		c0.2,0.5,0.6,0.8,1.1,1c-0.1,0.3-0.2,0.7-0.2,1.1c-0.1,0.8-0.2,1.1-0.9,1.3L11,32l0.2,0.6c0.1,0.4,0.3,0.7,0.6,1l-0.4,0.4
		c0.6,0.4,1.2,0.7,1.9,0.8c0.4,0,0.8-0.1,1.2-0.4c0.1,0.5,0.3,1,0.6,1.4c0.4,0.9,0.6,1.4,0.4,1.9l-0.6,1.1l1.2-0.1
		c0.5,0,1-0.1,1.5-0.2c0,0,0,0,0,0.1l-0.1,0.9l1.1-0.2c0.1,0,0.2-0.1,0.3-0.1c0.9,0.9,2.1,1.5,3.4,1.4h0.1l-1.8,0.7l1.3,0.7
		c0.9,0.5,1.9,0.8,2.9,1.1l-0.1,0.5l0.7,0.2c2.2,0.6,4.5,0.6,6.7,0l0.6-0.2l-0.1-0.5c1-0.3,2-0.7,2.9-1.1l1.3-0.7l-1.8-0.7h0.1
		c1.3,0,2.5-0.5,3.4-1.4c0.1,0.1,0.2,0.1,0.3,0.1l1.1,0.2l-0.1-0.9c0,0,0,0,0-0.1c0.5,0.1,1,0.2,1.5,0.2l1.2,0.1l-0.6-1.1
		c-0.3-0.5-0.1-1,0.4-1.9c0.2-0.5,0.4-0.9,0.6-1.4c0.2,0.2,0.5,0.3,0.8,0.3c0.1,0,0.3,0.1,0.4,0.1c0.4,0,0.9-0.1,1.2-0.4l0.7-0.4
		l-0.4-0.4c0.3-0.3,0.5-0.6,0.6-1l0.2-0.6l-0.6-0.2c-0.7-0.2-0.7-0.5-0.9-1.3c-0.1-0.4-0.1-0.7-0.2-1.1c0.5-0.1,0.9-0.5,1-1l0.2-0.6
		l-0.6-0.3c-0.6-0.3-1.1-0.7-1.6-1.2c0.3-0.2,0.5-0.5,0.7-0.8c0.2,0.1,0.4,0.1,0.6,0.1l0,0c0.5,0,1-0.2,1.3-0.6l0.4-0.5L46,24.1z"/>
	<path class="st3" d="M23,32.4v-5.1c0-0.5-0.1-1-0.3-1.4h4c0.8,1,2.3,1.1,3.3,0.3c0.1-0.1,0.2-0.2,0.3-0.3h4
		c-0.2,0.4-0.3,0.9-0.3,1.4v5.1H23z M28.5,39.5c-0.6-0.6-1-0.6-2.5-0.6c-1.8,0-3-1.1-3-2.7v-3.4h10.9v3.4c0,1.7-1.2,2.7-3,2.7
		C29.4,38.9,29,38.9,28.5,39.5"/>
	<path class="st2" d="M23.6,40.1v1l-0.9,0.4c0.9,0.4,1.8,0.7,2.8,0.9l0.5-1.7C25.2,40.6,24.4,40.4,23.6,40.1"/>
	<path class="st2" d="M28.5,41.5c-0.8,0-1.5-0.1-2.3-0.2L25.6,43c1.9,0.5,3.8,0.5,5.7,0l-0.5-1.7C30,41.4,29.2,41.5,28.5,41.5"/>
	<path class="st2" d="M33.3,40.1c-0.8,0.3-1.6,0.5-2.4,0.7l0.5,1.6c1-0.2,1.9-0.5,2.8-0.9l-0.9-0.4L33.3,40.1z"/>
	<path class="st2" d="M21.8,23.6c1.4-0.8,4.8-2.4,2.5-4.2c-0.3-0.2-0.7-0.5-1-0.7c-0.4,0.3,0.1,1,0.3,1.2c0,0-0.8,0.1-1,0.1
		c-1.2,0-2.4-0.7-1.8-2.1c-0.5,0.1-0.5,0.6-0.7,0.9c-0.3-0.2-0.8-0.6-1.2-0.6c0.3,1.1,1.7,2,2.8,2.2c-1.1,0.6-3.1,1-4.2-0.2
		c-0.7,1.4,0.3,2,1.3,2.8c-3.9,1.8-3.3,3.8-5.9,5.3c0.3,0.2,1.8-0.2,1.9-0.2c-0.4,0.4-0.7,0.9-1,1.4c-0.2,0.5-0.3,1-0.4,1.5
		c-0.1,0.7-0.5,1.3-1.1,1.7c0.3,0.5,1,0.1,1.2,0c-0.1,0.4-0.2,0.7-0.4,1c1.3-0.1,0.7-2.8,2-2.2c0.4,0.2,0.5,0.6,0.3,1c0,0,0,0,0,0
		c-0.9,1.8,1.1,3.3,1,4.9c0.5,0,1,0,1.3-0.7c0.2,0.4,0.4,0.8,0.6,1.2l0.4-0.6c0.3,1.2,1.4,2.1,2.7,2.2c-0.7-1,0.1-2.5-1.5-4
		c0.3-0.2,0.6-0.4,0.8-0.7c-2,0.2-4-1.3-3.1-2.1c0.6-0.5,0.9,0.5,1.8,0.4l-0.4-0.3c0.1-0.1,0.3-0.3,0.4-0.4
		c-0.3-0.1-0.6-0.2-0.9-0.3l0.2-0.4c-2.3,0-2.4-1.8-1.4-1.8c0.4,0,1,0.8,2.4,0.6c-0.2-0.2-0.3-0.5-0.3-0.8c0.4,0,0.7-0.1,1.1-0.2
		c-0.7-0.1-0.9-0.3-1.5-0.8l0.7-0.2c-1-0.5-0.9-1.3-0.9-2.2c0.5,0.3,1.1,0.7,1.8,0.5c0.2-0.1,0.2-0.1,0.3-0.3
		C20.2,26.1,19.6,24.7,21.8,23.6 M20.1,23.7c-1.2,1.3-0.7,2.1-0.4,2.3c-0.5-0.1-1.1-0.7-1-1.2c-0.1,0.2-0.3,0.4-0.4,0.6
		c-0.3,0.4-0.6,0.8-0.8,1.2c-0.4,1.1,0.3,2.2,1.5,2.7c-1-0.1-1.8-1-1.9-2.1c-0.6,0.9-0.9,2-0.9,3.1c0,0.3,0,0.6,0.1,0.9
		c0.3,0.6,0.8,0.8,1.6,0.9c-0.8,0-1.2,0-1.5-0.3c0.5,2.2,3,4.2,4,5.9c-1-1.3-3.1-3.2-3.8-4.6c-0.1,0.9,0.2,1.8,0.7,2.6
		c-0.9-0.9-1-2.3-0.9-3.1c-0.3-0.6-0.4-1.3-0.4-2c0-0.6,0-1.2,0.1-1.8c-0.6,0.8-1.4,1.1-1.8,2.4c0.1-1.6,1.3-1.7,2.2-3.6
		c0.4-0.9,0.8-1.7,1.4-2.4c-0.8,0.2-1.5,0.7-2.1,1.3c0.6-1.4,4-3,5.6-4.5c-0.5,0.1-2.4,0.1-3.2-0.4c1.5,0.4,4.7-0.1,5.9-0.9
		c-0.9,1.2-2.7,1.3-4.9,3.7C19.4,24.1,19.7,23.9,20.1,23.7"/>
	<path class="st2" d="M43.4,31c-0.1-0.5-0.2-1-0.4-1.5c-0.3-0.5-0.6-0.9-1-1.4c0.1,0,1.6,0.3,1.9,0.2c-2.5-1.6-2-3.5-5.9-5.3
		c1-0.8,2.1-1.4,1.3-2.8c-1.1,1.3-3.1,0.9-4.2,0.2c1.1-0.2,2.5-1.2,2.8-2.2c-0.4-0.1-0.9,0.4-1.2,0.6c-0.1-0.4-0.2-0.9-0.7-0.9
		c0.6,1.4-0.6,2.1-1.8,2.1c-0.2,0-1-0.1-1-0.1c0.1-0.3,0.6-0.9,0.3-1.2c-0.3,0.3-0.6,0.5-1,0.7c-2.3,1.8,1.1,3.4,2.5,4.2
		c2.2,1.2,1.6,2.6,0.7,2.9c0,0.2,0.1,0.2,0.3,0.3c0.6,0.2,1.2-0.2,1.7-0.5c0,0.9,0,1.7-0.9,2.2l0.7,0.2c-0.6,0.4-0.8,0.7-1.4,0.8
		c0.3,0.1,0.7,0.2,1.1,0.2c-0.1,0.3-0.2,0.6-0.3,0.8c1.4,0.2,2-0.6,2.4-0.6c0.9,0.1,0.9,1.8-1.4,1.8l0.2,0.4
		c-0.3,0.2-0.6,0.3-0.9,0.3c0.2,0.1,0.3,0.3,0.4,0.4l-0.4,0.3c0.9,0.2,1.2-0.9,1.8-0.4c0.9,0.7-1.1,2.3-3.1,2.1
		c0.3,0.3,0.5,0.5,0.8,0.7c-1.6,1.5-0.8,3-1.5,4c1.3-0.1,2.3-1,2.7-2.2l0.4,0.7c0.2-0.4,0.3-0.8,0.6-1.2c0.3,0.7,0.8,0.7,1.3,0.7
		c-0.1-1.6,1.8-3.1,1-4.9c-0.2-0.4,0-0.8,0.3-1c0,0,0,0,0,0c1.3-0.7,0.7,2.1,2,2.2c-0.2-0.3-0.3-0.7-0.4-1c0.3,0.1,0.9,0.5,1.2,0
		C43.8,32.3,43.4,31.7,43.4,31 M40.9,28.8c0.1,0.6,0.2,1.2,0.1,1.8c0,0.7-0.2,1.3-0.4,2c0.1,0.8,0,2.2-0.9,3.1
		c0.5-0.8,0.8-1.7,0.7-2.6c-0.7,1.4-2.8,3.3-3.8,4.6c1-1.7,3.4-3.6,4-5.9c-0.3,0.4-0.7,0.4-1.5,0.3c0.9-0.1,1.3-0.3,1.6-0.9
		c0-0.3,0.1-0.6,0.1-0.9c0-1.1-0.3-2.2-0.9-3.1c0,1-0.8,1.9-1.9,2.1c1.2-0.5,1.8-1.7,1.5-2.8c-0.2-0.4-0.5-0.8-0.8-1.2
		c-0.1-0.2-0.3-0.4-0.4-0.6c0.2,0.6-0.5,1.1-1,1.2c0.2-0.2,0.8-1-0.4-2.3c0.4,0.2,0.7,0.4,1,0.6c-2.2-2.4-4-2.5-4.9-3.7
		c1.2,0.8,4.4,1.3,5.9,0.9c-0.8,0.5-2.7,0.5-3.2,0.4c1.6,1.5,5,3.1,5.6,4.5c-0.5-0.6-1.3-1.1-2.1-1.3c0.6,0.8,1,1.6,1.4,2.5
		c0.9,2,2.1,2,2.2,3.6C42.4,29.9,41.5,29.6,40.9,28.8"/>
	<path class="st2" d="M30.3,25.9c-0.4,0.6-1.1,0.9-1.8,0.9c-0.2,0-0.3,0-0.5-0.1c0.1,0.2,0.2,0.5,0.4,0.6c-0.1,0.6,0.2,1.2,0.8,1.3
		c0,0,0,0,0,0c0.1,0.3,0.3,0.6,0.6,0.6l-0.4,0.5c-0.1,0.2-0.4,0.3-0.6,0.2l-2-0.2c0.1-0.2-0.1-0.5-0.8-0.4l0.8-2.2l-0.5-1L25.3,27
		l-0.1,2.3l-0.4-0.2c-0.5-0.2-0.7,0.7-0.2,0.7h0.2c0,0.1,0,0.2,0.1,0.2c-0.1,0-0.1,0.1-0.1,0.2c0,0,0,0,0.1,0.1
		c-0.1,0.1-0.1,0.2-0.1,0.3c0,0,0,0,0,0c-0.1,0.2-0.1,0.5,0.1,0.6c0,0,0.1,0,0.1,0c0.3,0.1,0.5-0.2,0.5-0.4l3.1,0.9
		c0.4,0.1,0.8,0,1.1-0.3l0.8-0.7c-0.1,0.4,0.1,0.8,0.4,1c0,0.2,0,0.4,0,0.6h2.8v-5.1c0-0.5,0.1-1,0.3-1.4L30.3,25.9L30.3,25.9z"/>
	<path class="st2" d="M25.6,34.6L25.6,34.6c0.1,0.2,0.2,0.2,0.3,0.1l0.1-0.1c0.1-0.1,0.7,0.2,0.7-0.3c0.1,0.4-0.4,1.1-0.1,1.5
		l0.3,0.6h-1.1c-0.1,0-0.2,0.1-0.2,0.1l-0.3,0.6c-0.1,0.1-0.1,0.3,0,0.4l0.2,0.2c0.1-0.1,0.2-0.2,0.2-0.3l-0.1-0.1
		c-0.1-0.1-0.1-0.2,0-0.2l0.2-0.4c0-0.1,0.2-0.2,0.3-0.2c0,0,0,0,0,0l0.9,0.2c0.1,0,0.2,0.1,0.2-0.1c0.1-0.2,0.3-0.3,0.5-0.2
		c0.5,0.1,1.7,0.2,2.1-0.3c0.5,0.7,1.4,0.7,1.4,1l-0.2,1.2h0.3l0.2-1.1c0-0.1,0.1-0.3,0-0.4c-0.1,0-0.1-0.1-0.2-0.3
		c-0.2-0.3-0.2-0.8-0.3-1.2c0.1-0.2,0.3-0.2,0.5-0.2c0.3,0.1,0.4,0.7,0.9,1.1c0-0.2-0.1-0.4-0.2-0.6c0.2,0.1,0.3,0.3,0.4,0.6
		c0,0.2,0.1,0.3,0.3,0.4c0.1,0,0.2,0,0.4-0.2c0,0-0.3-0.4-0.5-0.7c-0.3-0.5-0.8-0.7-1.3-0.8c-0.2,0-0.4,0.1-0.5,0.2
		c-0.7-0.4-1.2,0-1.4,0l-1.2-0.1c-0.2,0-0.3-0.1-0.4-0.3c0-0.7-0.5-1.3-1.2-1.5c0,0,0-0.2,0-0.3l-0.3,0.3l-0.7-0.3l0.6,0.5l-0.6,0.7
		C25.5,34.4,25.5,34.5,25.6,34.6"/>
	<path class="st2" d="M24.8,36c-0.2,0.1-0.2,0.3-0.1,0.5l0.1,0.2l0.3-0.2L25,36.4c-0.1-0.1,0-0.2,0-0.2l0.4-0.3
		c0.1-0.1,0.2-0.1,0.3-0.1l0.8,0.2c-0.1-0.1-0.1-0.2-0.2-0.4l-0.8-0.1c-0.1,0-0.2,0-0.3,0.1L24.8,36z"/>
	<path class="st2" d="M30,38.4h0.3l0.5-1.2c0,0,0-0.1,0.1-0.1c-0.2-0.1-0.4-0.2-0.5-0.3c0.1,0.2,0.2,0.2,0.2,0.4L30,38.4z"/>
	<path class="st2" d="M30.2,22l0.6-3.3l-2.1,0.7v3.4L30.2,22z M29,19.8l1.4-0.5c0,0-0.3,0.2-0.6,0.5c-0.3,0.2-0.5,0.3-0.8,0.4
		L29,19.8z M29,20.6l1.3-0.5c-0.1,0.1-0.3,0.3-0.5,0.4c-0.3,0.2-0.5,0.3-0.8,0.4L29,20.6z M29,21.5l1.1-0.4c0,0,0,0.1-0.3,0.4
		c-0.3,0.2-0.5,0.3-0.8,0.4V21.5z"/>
	<path class="st2" d="M26.4,24.9L26.4,24.9l0.5,0.1v0.1c0,0.1,0,0.2,0,0.2c0.1,0.2,0.2,0.5,0.4,0.6c0.3,0.2,0.7,0.4,1.1,0.4
		c1.1,0,1.5-0.7,1.6-1.2V25h0.4l0-0.1c0.4-0.7,0.9-1.4,1.5-1.5l-1.6-0.9l-2,1.1l-1.9-1.1l-1.6,0.9C25.5,23.5,26,24.3,26.4,24.9"/>
	<path class="st2" d="M28.3,22.9v-3.4l-2.1-0.7l0.6,3.3L28.3,22.9z M27.9,21.8c-0.3-0.1-0.6-0.3-0.8-0.4c-0.3-0.2-0.3-0.4-0.3-0.4
		l1.2,0.4V21.8z M27.9,19.8v0.3c-0.3-0.1-0.6-0.3-0.8-0.4c-0.3-0.2-0.6-0.5-0.6-0.5L27.9,19.8z M27.9,20.6V21
		c-0.3-0.1-0.6-0.3-0.8-0.4c-0.2-0.1-0.3-0.2-0.5-0.4L27.9,20.6z"/>
	<path class="st2" d="M28.5,17.3c-1.2,0-2.1,0.4-2.3,0.9l2.3,0.9l2.3-0.9C30.6,17.7,29.7,17.3,28.5,17.3"/>
	<path class="st2" d="M28.5,16c0.8,0,1.7,0.2,2.4,0.6c0.1-0.3,0.2-0.6,0.4-0.8l-0.6,0.1l-0.4-1l-0.9,0.4l-0.9-0.9l-0.9,0.9l-0.9-0.4
		l-0.4,0.9l-0.6-0.1c0.1,0.3,0.3,0.5,0.4,0.8C26.8,16.2,27.6,16,28.5,16"/>
	<path class="st2" d="M43.8,23.4c0.3,0,0.6-0.2,0.9-0.4c-0.6-0.2-2-0.7-3.1-0.4c-0.4,0.1-0.6,0.2-0.5,0.3c0.8,0.7,1.5,1.5,1.9,2.5
		c0.3-0.5,0.4-1.1,0.2-1.6c1,0.6,1.2,0.9,1.7,0.8C44.5,24.1,44.2,23.7,43.8,23.4"/>
	<path class="st2" d="M13.9,25.4c0.4-1,1.1-1.8,1.9-2.5c0.1-0.1-0.1-0.2-0.5-0.3c-1.1-0.2-2.5,0.3-3.1,0.4c0.2,0.2,0.5,0.3,0.9,0.4
		c-0.4,0.3-0.8,0.7-1,1.1c0.5,0.1,0.7-0.2,1.7-0.8C13.5,24.3,13.6,24.9,13.9,25.4"/>
	<path class="st0" d="M20.7,35.6c0.4-0.4,0.8-0.5,0.8-1.4c-0.7,0.3-2.6,0.3-3.4-0.8c-0.2-0.3,0-0.5,0.2-0.2c0.5,0.6,1.6,0.3,1.9,0.2
		c-0.1-0.2-0.2-0.4-0.4-0.6c0.1-0.1,0.5-0.3,0.6-0.7c-0.3-0.1-0.7-0.2-1-0.2c0.2-0.2,0.3-0.5,0.2-0.8c-0.8,0.3-1.8-0.1-2.1-0.4
		s0-0.6,0.2-0.4c0.4,0.4,2.4,0.9,3.2,0.2c-0.3-0.1-0.5-0.2-0.6-0.5c0.7-0.1,1.3-0.5,1.3-1c-0.5,0-0.9,0-1.4-0.2
		c0.3-0.1,0.6-0.3,0.7-0.6c-1.3-0.1-1.4-1-1.4-1.2c0.8,0.5,2.3,0.3,1.9-0.9c-0.7,0-1.4-1.2,0.5-2.2c1.7-0.9,3.7-1.9,3.5-3.6
		c-0.1-1.1-1.9-1.8-2.1-2.3c-0.7,0.3-0.9,0.7-0.5,1.4c0,0-1.6,0.2-1.8-0.9c0-0.5,0.2-0.9,0.6-1.2c-0.2,0-1.4-0.3-1.8,0.7
		c-0.7-0.5-1.3-0.4-1.7,0c0.7,0.4,1.2,1.9,2.4,2.4c-0.9,0.5-2.3,0.3-3.1-1.2c-0.8,1.2-1.2,2.3,0.4,3.6c-3,1.4-3,4-5.6,5.3
		c0.3,0.7,0.8,0.7,1.6,0.6c-1.1,1.5-0.2,3-2,3.7c0.2,0.6,0.5,1.1,1.2,0.9c-0.2,0.3-0.3,0.3-0.6,0.6c1,0.6,2.1,0.2,2.4-1.8
		c0-0.4,0.5-0.1,0.4,0.2c-1.1,2.3,1.7,4.1,0.7,5.8c0.9,0,1.6-0.1,1.9-0.4c0.2,0.3,0.3,0.7,0.2,1.1c0.4,0,0.7-0.3,0.7-0.7
		c0.3,0.9,1.5,1.9,3.3,1.9C21.1,38.6,22,37.2,20.7,35.6 M18.9,37.3L18.5,38c-0.2-0.4-0.3-0.8-0.6-1.2c-0.3,0.7-0.8,0.7-1.3,0.7
		c0.1-1.6-1.8-3.1-1-4.9c0.2-0.4,0-0.8-0.3-1c0,0,0,0,0,0c-1.3-0.7-0.7,2.1-2,2.2c0.2-0.3,0.3-0.7,0.4-1c-0.3,0.1-0.9,0.5-1.2,0
		c0.6-0.3,1-1,1.1-1.7c0.1-0.5,0.2-1,0.4-1.5c0.3-0.5,0.6-0.9,1-1.4c-0.1,0-1.6,0.3-1.9,0.2c2.5-1.6,2-3.5,5.9-5.3
		c-1-0.8-2.1-1.4-1.3-2.8c1.1,1.3,3.1,0.9,4.2,0.2c-1.1-0.2-2.5-1.2-2.8-2.2c0.4-0.1,0.9,0.4,1.2,0.6c0.1-0.4,0.2-0.9,0.7-0.9
		c-0.6,1.3,0.6,2.1,1.8,2.1c0.2,0,1-0.1,1-0.1c-0.1-0.3-0.6-0.9-0.3-1.2c0.3,0.3,0.6,0.5,1,0.7c2.3,1.8-1.1,3.4-2.5,4.2
		c-2.2,1.2-1.6,2.6-0.7,2.9c0,0.2-0.1,0.2-0.3,0.3c-0.6,0.2-1.2-0.2-1.8-0.5c0,0.9,0,1.7,0.9,2.2l-0.7,0.2c0.6,0.4,0.8,0.7,1.5,0.8
		c-0.3,0.1-0.7,0.2-1.1,0.2c0.1,0.3,0.2,0.6,0.3,0.8c-1.4,0.2-2-0.6-2.4-0.6c-0.9,0.1-0.9,1.8,1.4,1.8l-0.2,0.4
		c0.3,0.2,0.6,0.3,0.9,0.3c-0.2,0.1-0.3,0.3-0.4,0.4l0.4,0.3c-0.9,0.2-1.2-0.9-1.8-0.4c-0.9,0.7,1.1,2.3,3.1,2.1
		c-0.3,0.3-0.5,0.5-0.8,0.7c1.6,1.5,0.8,3,1.5,4C20.3,39.5,19.2,38.6,18.9,37.3"/>
	<path class="st0" d="M16.3,31.8c0.3,0.4,0.7,0.4,1.5,0.3c-0.9-0.1-1.3-0.3-1.6-0.9c0-0.3-0.1-0.6-0.1-0.9c0-1.1,0.3-2.2,0.9-3.1
		c0,1,0.8,1.9,1.9,2.1c-1.2-0.5-1.8-1.6-1.5-2.7c0.2-0.4,0.5-0.8,0.8-1.2c0.2-0.2,0.3-0.4,0.4-0.6c-0.2,0.6,0.5,1.1,1,1.2
		c-0.2-0.2-0.8-1,0.4-2.3c-0.3,0.2-0.7,0.4-1,0.6c2.2-2.4,4-2.5,4.9-3.7c-1.2,0.8-4.4,1.3-5.9,0.9c0.8,0.5,2.7,0.5,3.2,0.4
		c-1.6,1.5-5,3.1-5.6,4.5c0.5-0.6,1.3-1.1,2.1-1.3c-0.6,0.8-1,1.6-1.4,2.5c-0.9,2-2.1,2-2.2,3.6c0.4-1.3,1.3-1.6,1.8-2.4
		c-0.1,0.6-0.2,1.2-0.1,1.8c0,0.7,0.2,1.3,0.4,2c-0.1,0.8,0,2.2,0.9,3.1c-0.5-0.8-0.8-1.7-0.7-2.6c0.7,1.4,2.8,3.3,3.8,4.6
		C19.3,36,16.9,34,16.3,31.8"/>
	<path class="st0" d="M39.1,25.1c0.8,0.2,1.5,0.7,2.1,1.3c-0.6-1.4-4-3-5.6-4.5c0.5,0.1,2.4,0.1,3.2-0.4c-1.5,0.4-4.7-0.1-5.9-0.9
		c0.9,1.2,2.7,1.3,4.9,3.7c-0.3-0.2-0.6-0.4-1-0.6c1.2,1.3,0.7,2.1,0.4,2.3c0.5-0.1,1.1-0.7,1-1.2c0.1,0.2,0.3,0.4,0.4,0.6
		c0.3,0.4,0.6,0.8,0.8,1.2c0.4,1.1-0.3,2.2-1.5,2.7c1-0.1,1.8-1,1.9-2.1c0.6,0.9,0.9,2,0.9,3.1c0,0.3,0,0.6-0.1,0.9
		c-0.3,0.6-0.8,0.8-1.6,0.9c0.8,0,1.2,0,1.5-0.3c-0.5,2.2-3,4.2-4,5.9c1-1.3,3.1-3.2,3.8-4.6c0.1,0.9-0.2,1.8-0.7,2.6
		c0.9-0.9,1-2.3,0.9-3.1c0.2-0.6,0.4-1.3,0.4-2c0-0.6,0-1.2-0.1-1.8c0.6,0.8,1.4,1.1,1.8,2.4c-0.1-1.6-1.3-1.7-2.2-3.6
		C40.1,26.7,39.7,25.8,39.1,25.1"/>
	<path class="st0" d="M43.1,28.8c0.7,0.1,1.3,0.1,1.5-0.6C42,26.9,42,24.3,39,22.9c1.7-1.2,1.2-2.4,0.4-3.6
		c-0.8,1.4-2.2,1.6-3.1,1.2c1.2-0.4,1.7-1.9,2.4-2.4c-0.4-0.5-1-0.5-1.7-0.1c-0.4-1-1.6-0.7-1.8-0.7c0.4,0.3,0.6,0.7,0.6,1.2
		c-0.1,1-1.8,0.9-1.8,0.9c0.3-0.7,0.2-1.1-0.5-1.4c-0.2,0.5-2,1.3-2.1,2.3C31.3,22,33.2,23,34.9,24c1.9,1,1.2,2.1,0.5,2.2
		c-0.4,1.2,1.1,1.4,1.9,0.9c0,0.2-0.1,1.1-1.4,1.2c0.1,0.3,0.3,0.5,0.6,0.6c-0.4,0.2-0.9,0.2-1.4,0.2c0,0.5,0.6,0.9,1.3,1
		c-0.1,0.2-0.4,0.4-0.6,0.5c0.8,0.7,2.8,0.3,3.2-0.2c0.2-0.2,0.4,0.1,0.2,0.4C39,31,38,31.4,37.2,31.1c-0.1,0.3,0,0.6,0.2,0.8
		c-0.3,0-0.7,0.1-1,0.2c0.1,0.3,0.5,0.5,0.6,0.7c-0.2,0.2-0.3,0.4-0.4,0.6c0.4,0.2,1.4,0.5,1.9-0.2c0.2-0.2,0.5-0.1,0.2,0.2
		c-0.8,1.1-2.7,1.1-3.4,0.8c0,0.9,0.4,1,0.8,1.4c-1.4,1.6-0.5,3-1.4,4.4c1.8,0,3-1,3.3-1.9c0,0.4,0.3,0.7,0.7,0.7
		c0-0.4,0.1-0.7,0.2-1.1c0.4,0.3,1,0.4,1.9,0.4c-1-1.7,1.8-3.4,0.7-5.8C41.5,32,42,31.8,42,32.1c0.3,2,1.4,2.4,2.4,1.8
		c-0.3-0.3-0.4-0.3-0.6-0.6c0.7,0.2,1-0.3,1.2-0.9C43.2,31.8,44.2,30.3,43.1,28.8 M43.2,32.7c0.1,0.4,0.2,0.7,0.4,1
		c-1.3-0.1-0.7-2.8-2-2.2c-0.4,0.2-0.5,0.6-0.3,1c0,0,0,0,0,0c0.9,1.8-1.1,3.3-1,4.9c-0.5,0-1,0-1.3-0.7c-0.2,0.4-0.4,0.8-0.6,1.2
		l-0.4-0.7c-0.3,1.2-1.4,2.1-2.7,2.2c0.7-1-0.1-2.5,1.5-4c-0.3-0.2-0.6-0.4-0.8-0.7c2,0.2,4-1.3,3.1-2.1c-0.6-0.5-0.9,0.5-1.8,0.4
		l0.4-0.3c-0.1-0.1-0.3-0.3-0.4-0.4c0.3-0.1,0.6-0.2,0.9-0.3l-0.2-0.4c2.3,0,2.4-1.8,1.4-1.8c-0.4,0-1,0.8-2.4,0.6
		c0.2-0.2,0.3-0.5,0.3-0.8c-0.4,0-0.7-0.1-1.1-0.2c0.7-0.1,0.9-0.3,1.5-0.8l-0.7-0.2c1-0.5,0.9-1.3,0.9-2.2
		c-0.5,0.3-1.1,0.7-1.7,0.5c-0.2-0.1-0.3-0.1-0.3-0.3c0.9-0.4,1.5-1.8-0.7-2.9c-1.4-0.8-4.8-2.4-2.5-4.2c0.3-0.2,0.7-0.5,1-0.7
		c0.4,0.3-0.1,1-0.3,1.2c0,0,0.8,0.1,1,0.1c1.2,0,2.4-0.7,1.8-2.1c0.5,0.1,0.5,0.6,0.7,0.9c0.3-0.2,0.8-0.6,1.2-0.6
		c-0.3,1.1-1.7,2-2.8,2.2c1.1,0.6,3.1,1,4.2-0.2c0.7,1.4-0.3,2-1.3,2.8c3.9,1.8,3.3,3.8,5.9,5.3c-0.3,0.2-1.8-0.2-1.9-0.2
		c0.4,0.4,0.7,0.9,1,1.4c0.2,0.5,0.3,1,0.4,1.5c0.1,0.7,0.5,1.3,1.1,1.7C44.2,33.2,43.5,32.8,43.2,32.7"/>
	<path class="st0" d="M24.8,37.1l0.6-0.5l-0.1-0.2c-0.1-0.1,0-0.1,0-0.2l0.3-0.2c0.1,0,0.1-0.1,0.2,0l0.9,0.2h-0.9
		c-0.2,0-0.3,0.1-0.4,0.3l-0.1,0.1l-0.2,0.5c-0.1,0.2-0.1,0.5,0.1,0.6l0.2,0.2L25,38.6h0.3l0.2-0.5c0.2-0.2,0.3-0.4,0.4-0.7
		c-0.1-0.1-0.2-0.1-0.1-0.3l0.1-0.2c0-0.1,0-0.1,0.1-0.1l0.9,0.2c0.1,0.1,0.3,0,0.4-0.1c0.1-0.2,0.1-0.2,0.4-0.1l0.5,0.1
		c0.5,0.1,1.1,0,1.5-0.3c0.1,0.2,0.3,0.4,0.3,0.5c0,0.1,0,0.1-0.1,0.2l-0.5,1.2h0.8l0.5-1.2c0-0.1,0.1-0.2,0.2-0.2l-0.3,1.4h0.8
		l0.2-1.4c0-0.3,0-0.4-0.1-0.5c-0.3-0.3-0.3-0.9-0.4-1.2c0.1,0,0.1,0,0.2,0c0.2,0,0.3,0.5,0.5,0.7c0.4,0.6,1,1.2,1.6,0.3
		c-0.1-0.1-0.1-0.2-0.2-0.3L33.1,36c-0.1-0.1-0.6-0.7-0.8-0.9c-0.4-0.4-1-0.5-1.5-0.2c-0.6-0.3-1.3,0-1.5,0l-1.1-0.1
		c-0.1,0-0.1,0-0.2-0.1l0.2-0.1c-0.2-0.8-0.7-1.5-1.5-1.6c0,0-0.1-0.3-0.2-0.3l-0.3,0.3c-0.1,0-0.1,0-0.2,0.1l-1.1-0.4l0.8,0.8
		c0,0-0.4,0.6-0.5,0.7c-0.1,0.1-0.1,0.2,0,0.3c0,0,0,0,0,0l0.2,0.2c0.1,0.1,0.2,0.1,0.3,0l0.2-0.1c0.1-0.1,0.3,0.1,0.4,0
		c-0.1,0.2-0.1,0.4-0.1,0.6l-0.7-0.1c-0.1,0-0.2,0-0.3,0.1l-0.6,0.5c-0.2,0.2-0.3,0.5-0.1,0.7L24.8,37.1z M30.7,37.2l-0.5,1.2H30
		l0.5-1.2c0.1-0.1,0-0.2-0.2-0.4C30.4,37,30.6,37,30.7,37.2C30.8,37.1,30.8,37.2,30.7,37.2 M26,34.6l-0.1,0.1
		c-0.1,0.1-0.1,0.1-0.2,0l-0.1-0.1c0-0.1,0-0.1,0-0.2l0.6-0.7l-0.6-0.5l0.7,0.3l0.3-0.3c0.1,0.1,0.1,0.3,0.1,0.3
		c0.7,0.1,1.2,0.8,1.2,1.5c0.1,0.1,0.3,0.3,0.4,0.3l1.2,0.1c0.2,0,0.7-0.4,1.4,0c0.2-0.1,0.3-0.2,0.5-0.2c0.5,0,1,0.3,1.3,0.8
		c0.2,0.3,0.6,0.7,0.6,0.7c-0.1,0.2-0.3,0.2-0.4,0.2c-0.2-0.1-0.3-0.2-0.3-0.4c-0.1-0.2-0.2-0.4-0.4-0.6c0.1,0.2,0.2,0.4,0.2,0.6
		c-0.5-0.5-0.6-1.1-0.9-1.1c-0.2,0-0.4,0.1-0.5,0.2c0.2,0.4,0.2,0.9,0.3,1.2c0.1,0.2,0.2,0.2,0.2,0.3c0.1,0.1,0.1,0.3,0,0.4
		l-0.2,1.1h-0.3l0.2-1.1c0.1-0.3-0.9-0.3-1.4-1c-0.4,0.5-1.6,0.4-2.1,0.3c-0.2-0.1-0.4,0-0.5,0.2c-0.1,0.1-0.2,0.1-0.2,0.1l-0.9-0.2
		c-0.1-0.1-0.2,0-0.3,0.1c0,0,0,0,0,0l-0.2,0.4c0,0.1,0,0.2,0,0.2l0.1,0.1c0,0.1-0.1,0.2-0.2,0.3l-0.2-0.2c-0.1-0.1-0.1-0.3,0-0.4
		l0.3-0.6c0-0.1,0.1-0.1,0.2-0.1H27l-0.3-0.6c-0.3-0.4,0.2-1.2,0.1-1.5C26.7,34.7,26.1,34.5,26,34.6 M24.8,36l0.5-0.4
		c0.1-0.1,0.2-0.1,0.3-0.1l0.8,0.1c0,0.1,0.1,0.2,0.2,0.4l-0.8-0.2c-0.1,0-0.2,0-0.3,0.1l-0.4,0.3c-0.1,0.1-0.1,0.2,0,0.2l0.1,0.1
		l-0.3,0.2l-0.1-0.2C24.6,36.3,24.6,36.1,24.8,36"/>
	<path class="st0" d="M27.1,21.4c0.3,0.2,0.5,0.3,0.8,0.4v-0.3L26.8,21C26.8,21,26.8,21.2,27.1,21.4"/>
	<path class="st0" d="M27.9,21v-0.3l-1.3-0.5c0.1,0.1,0.3,0.3,0.5,0.4C27.4,20.7,27.7,20.9,27.9,21"/>
	<path class="st0" d="M27.9,20.2v-0.3l-1.4-0.5c0,0,0.3,0.2,0.6,0.5C27.4,19.9,27.7,20.1,27.9,20.2"/>
	<path class="st0" d="M32,24.9h1.5c-0.1-0.3-0.4-0.5-0.7-0.4C32.4,24.5,32.1,24.7,32,24.9"/>
	<path class="st0" d="M30.4,19.3L29,19.8v0.3c0.3-0.1,0.6-0.3,0.8-0.4C30.1,19.5,30.4,19.3,30.4,19.3"/>
	<path class="st0" d="M30.1,21L29,21.4v0.3c0.3-0.1,0.6-0.3,0.8-0.4C30.1,21.1,30.1,21,30.1,21"/>
	<path class="st0" d="M30.3,20.2L29,20.6V21c0.3-0.1,0.6-0.3,0.8-0.4C30,20.4,30.2,20.3,30.3,20.2"/>
	<path class="st0" d="M24.2,24.5c-0.3,0-0.6,0.1-0.7,0.4H25C24.8,24.7,24.5,24.5,24.2,24.5"/>
	<path class="st0" d="M31.4,18.4c0-0.8-1.4-1.6-2.9-1.6s-2.9,0.7-2.9,1.6l0,0.2l0.6,3.5l-2.9,1.7c-0.4,0.3-0.7,0.7-0.7,1.2h0.5
		c0.1-0.6,0.6-1,1.2-1c0.7,0,1.1,0.4,1.5,1l0.1,0.2l0.1,0.2h-4.2c0.4,0.6,0.6,1.3,0.6,2v8.8c0,2.3,1.7,3.3,3.6,3.3
		c1.5,0,1.7-0.1,2.5,0.7c0.8-0.8,1-0.7,2.5-0.7c1.9,0,3.6-1.1,3.6-3.3v-8.8c0-0.7,0.3-1.4,0.6-2h-4.2l0.1-0.2l0.1-0.2
		c0.4-0.6,0.8-1,1.5-1c0.6,0,1.1,0.4,1.2,1h0.5c-0.1-0.5-0.3-0.9-0.7-1.2l-2.9-1.7l0.6-3.5L31.4,18.4z M26.1,18.8l2.1,0.7v3.4
		L26.7,22L26.1,18.8z M26.7,25.9c0.3,0.4,0.8,0.7,1.3,0.8c0.1,0.2,0.2,0.5,0.4,0.6c-0.1,0.6,0.2,1.2,0.8,1.3c0,0,0,0,0,0
		c0.1,0.3,0.3,0.6,0.6,0.6l-0.4,0.5c-0.1,0.2-0.4,0.3-0.6,0.2l-2-0.2c0.1-0.2-0.1-0.5-0.8-0.4l0.8-2.2l-0.5-1L25.3,27l-0.1,2.3
		l-0.4-0.2c-0.5-0.2-0.7,0.7-0.2,0.7h0.2c0,0.1,0,0.2,0.1,0.2c-0.1,0-0.1,0.1-0.1,0.2c0,0,0,0,0.1,0.1c-0.1,0-0.1,0.2-0.1,0.3
		c0,0,0,0,0,0c-0.1,0.2-0.1,0.5,0.1,0.6c0,0,0.1,0,0.1,0c0.3,0.1,0.5-0.2,0.5-0.4l3.1,0.9c0.4,0.1,0.8,0,1.1-0.3l0.8-0.7
		c-0.1,0.4,0.1,0.8,0.4,1c0,0.2,0,0.4,0,0.6H23v-5.1c0-0.5-0.1-1-0.3-1.4L26.7,25.9z M30,27.9c-0.2,0.3-0.2,0.7,0,1L30,29
		c-0.6-0.1-0.8-0.9-0.8-0.9c0,0.1,0,0.2,0,0.2c-0.4-0.1-0.6-0.5-0.5-0.9c0.1,0.1,0.3,0.1,0.4,0.1l0-0.3c-0.3,0-0.6-0.3-0.7-0.6h-0.1
		h0.2c0.2,0,0.5,0,0.7-0.1c0.2,0.2,0.5,0.4,0.8,0.4C29.9,27.3,29.9,27.6,30,27.9 M30.9,30.1c-0.1,0.1-0.1,0.2-0.1,0.3l-0.3,0.3
		c0-0.5-0.2-1-0.5-1.3l0.3-0.3l0.1,0.1C30.2,29.6,30.4,30,30.9,30.1C30.9,30.1,30.9,30.1,30.9,30.1 M29.3,30l0.3-0.3
		c0.4,0.3,0.6,0.8,0.5,1.3l-0.3,0.3c-0.1,0.1-0.1,0.1-0.2,0.1C29.8,30.9,29.6,30.4,29.3,30 M28.7,30.2L28.7,30.2c0.1,0,0.2,0,0.3,0
		c0.3,0.4,0.3,0.9,0.1,1.4c-0.1,0-0.3,0-0.4-0.1l-0.1,0C28.8,31.1,28.8,30.6,28.7,30.2 M28.1,30.2l0.4,0c0.1,0.4,0,0.8-0.2,1.2
		l-0.4-0.1C28,30.9,28.1,30.5,28.1,30.2 M27.3,30.1l0.5,0.1c0,0.4,0,0.7-0.2,1L27.1,31C27.2,30.7,27.3,30.4,27.3,30.1 M25.4,29.9
		c-0.1,0.1-0.2,0-0.3-0.1c0,0,0-0.1,0-0.1c0.2-0.1,0.5-0.1,0.7,0c0.1,0.1,0.2,0.3,0.4,0.4c0,0.2-0.1,0.4-0.1,0.6
		c-0.2,0-0.4-0.2-0.4-0.4c0-0.1,0-0.2,0.1-0.3C25.7,29.9,25.5,29.9,25.4,29.9 M25.1,30.8c0.1,0,0.2,0.1,0.3,0.1
		c0,0.1-0.1,0.2-0.2,0.2c0,0,0,0,0,0C25.1,31,25.1,30.9,25.1,30.8C25.1,30.8,25.1,30.8,25.1,30.8 M24.7,29.6c-0.1,0-0.1-0.1-0.1-0.2
		c0,0,0.1-0.1,0.1-0.1c0.1,0,0.3,0.1,0.5,0.2C25,29.6,24.9,29.6,24.7,29.6 M25.1,30.4c0.1,0.1,0.4,0.1,0.4,0.1v0.1
		C25.4,30.7,25,30.6,25.1,30.4 M25.5,30.3c-0.2,0.1-0.4,0-0.3-0.2c0.1,0.1,0.4,0,0.4,0L25.5,30.3z M25.8,28l-0.4,1.4l0.1-2.2
		l0.6-0.5l0.3,0.7l-0.7,2.2l0.2-1.5C25.9,27.9,25.8,27.8,25.8,28 M25.8,29.6c0.2,0,0.4,0,0.5,0c0.1,0,0,0.2-0.1,0.2
		C26.1,29.8,26,29.7,25.8,29.6 M26.5,30L27,30c0,0.3,0,0.6-0.2,0.9l-0.4-0.1C26.4,30.5,26.5,30.3,26.5,30 M33.9,36.1
		c0,1-0.5,1.9-1.3,2.3l0.3-0.6h-0.3l-0.4,0.8c-0.4,0.2-0.9,0.2-1.3,0.2c-1.5,0-1.9,0.1-2.5,0.6c-0.6-0.6-1-0.6-2.5-0.6
		c-0.4,0-0.9-0.1-1.3-0.2l0,0l0.4-0.8h-0.3l-0.3,0.7c-0.1,0-0.2-0.1-0.2-0.1l0.3-0.6h-0.3L24,38.3c-0.7-0.5-1.1-1.3-1-2.1v-3.4h11
		V36.1z M34.2,25.9c-0.2,0.4-0.3,0.9-0.3,1.4v5.1h-0.6c-0.2-0.3-0.4-0.7-0.5-1.1c-0.1,0.4,0,0.8,0.2,1.1h-0.8
		c-0.2-0.4-0.3-0.8-0.3-1.2c-0.2,0.3-0.1,1,0.1,1.2h-0.5c0-0.3,0-0.5,0.1-0.8c-0.3-0.1-0.6-0.2-0.6-0.5c0.1,0.1,0.2,0.1,0.4,0.1
		l0.2-0.2c-0.7,0-0.8-0.8-0.2-1.1c-0.6,0-1-0.3-0.8-0.9c-0.4-0.3-0.5-0.8-0.3-1.2c0,0,0,0,0,0c-0.2-0.3-0.3-0.7-0.1-1
		c-0.3,0-0.6-0.1-0.8-0.3h0c0.3-0.1,0.6-0.4,0.9-0.7L34.2,25.9z M32.1,23.4c-0.6,0.1-1.1,0.8-1.5,1.5l0,0.1h-0.4v0.1
		c0,0.5-0.5,1.2-1.6,1.2c-0.4,0-0.8-0.1-1.1-0.4c-0.2-0.2-0.3-0.4-0.4-0.6c0-0.1,0-0.1,0-0.2V25h-0.4l-0.1-0.1
		c-0.4-0.7-0.9-1.4-1.5-1.5l1.6-0.9l2,1.1l2-1.1L32.1,23.4z M30.2,22l-1.6,0.8v-3.4l2.1-0.7L30.2,22z M28.5,19.1l-2.3-0.9
		c0.2-0.5,1.1-0.9,2.3-0.9s2.1,0.4,2.3,0.9L28.5,19.1z"/>
	<path class="st0" d="M33.7,29.2V29c-0.8,0-1-1-1-1c-0.1,0.5,0.1,1,0.6,1.2C33.5,29.2,33.6,29.2,33.7,29.2"/>
	<path class="st0" d="M32.7,30.8l-0.1-0.2c-0.7,0.2-1-0.9-1-0.9c-0.1,0.5,0.1,1,0.6,1.1C32.4,30.8,32.5,30.8,32.7,30.8"/>
	<path class="st0" d="M33.2,29.8C32.4,29.9,32,29,32,29c-0.1,0.5,0.2,1,0.7,1.1c0,0,0,0,0.1,0c-0.1,0.4,0.2,0.8,0.5,0.8
		c0.2,0,0.3,0,0.5-0.1l-0.1-0.2c-0.3,0.1-0.6,0-0.7-0.3C33,30.2,33,30,33.2,29.8"/>
	<path class="st0" d="M32.7,27.1v-0.3c-1.1-0.2-1-1-1-1c-0.1,0.5,0.2,1,0.7,1.2C32.5,27.1,32.6,27.2,32.7,27.1"/>
	<polygon class="st0" points="25.9,37.8 25.6,38.6 25.9,38.6 26.2,37.8 	"/>
	<polygon class="st0" points="26.5,37.8 26.1,38.6 26.4,38.6 26.8,37.8 	"/>
	<polygon class="st0" points="28.8,37.8 28.4,38.6 28.7,38.6 29.1,37.8 	"/>
	<polygon class="st0" points="29.4,37.8 29,38.6 29.3,38.6 29.7,37.8 	"/>
	<polygon class="st0" points="28.2,37.8 27.9,38.6 28.1,38.6 28.5,37.8 	"/>
	<polygon class="st0" points="31.6,38.6 31.9,38.6 32.3,37.8 32,37.8 	"/>
	<polygon class="st0" points="27.1,37.8 26.7,38.6 27,38.6 27.4,37.8 	"/>
	<polygon class="st0" points="27.7,37.8 27.3,38.6 27.6,38.6 28,37.8 	"/>
	<path class="st0" d="M26.4,33.7c-0.1,0-0.1,0-0.1,0.1c0,0.1,0,0.1,0.1,0.1c0.1,0,0.1,0,0.1-0.1c0,0,0,0,0,0
		C26.5,33.8,26.4,33.7,26.4,33.7"/>
	<path class="st0" d="M28.5,16.3c0.9,0,1.9,0.3,2.6,0.8c0.1-0.6,0.4-1.2,0.7-1.8l-1,0.1l-0.5-1.1l-1,0.5L28.5,14l-0.9,0.9l-1-0.5
		l-0.5,1.1l-1-0.1c0.3,0.5,0.6,1.1,0.7,1.8C26.6,16.6,27.5,16.3,28.5,16.3 M26.3,15.9l0.5-1l0.9,0.4l0.9-0.9l0.9,0.9l0.9-0.4l0.4,1
		l0.6-0.1c-0.1,0.3-0.3,0.5-0.4,0.8c-1.5-0.8-3.3-0.8-4.8,0c-0.1-0.3-0.2-0.6-0.4-0.8L26.3,15.9z"/>
	<path class="st0" d="M29.4,14.4c0.1,0,0.3-0.1,0.3-0.2c0-0.2-0.1-0.3-0.2-0.5c0,0-0.3,0.3-0.3,0.5C29.2,14.3,29.3,14.4,29.4,14.4"
		/>
	<path class="st0" d="M31,15c0.1,0.1,0.3,0,0.3-0.1c0,0,0,0,0,0c0-0.2,0-0.4,0-0.5c0,0-0.4,0.2-0.5,0.3C30.8,14.7,30.9,14.9,31,15"
		/>
	<path class="st0" d="M27.5,14.4c0.1,0,0.2-0.1,0.2-0.3c0-0.1-0.3-0.5-0.3-0.5c-0.1,0.2-0.2,0.3-0.2,0.5
		C27.2,14.3,27.3,14.4,27.5,14.4"/>
	<path class="st0" d="M25.9,15c0.1-0.1,0.2-0.2,0.1-0.3c-0.1-0.1-0.5-0.3-0.5-0.3c0,0.2,0,0.4,0,0.5C25.6,15,25.8,15,25.9,15
		C25.9,15,25.9,15,25.9,15"/>
	<path class="st0" d="M44.6,23.5c0.3-0.1,0.6-0.4,0.7-0.7c-0.9-0.1-3.1-1.1-4.9-0.3c0.7-0.7,1.3-0.7,1.4-1.7c0.3,0.3,0.7,0.2,0.9,0
		c0,0,0.1-0.1,0.1-0.1c-0.2-0.6-0.7-0.1-0.7-0.3c-0.1-0.2,0.6,0.1,0.8-0.7c-0.5-0.2-0.7,0.3-0.8,0.2c-0.1-0.1,0.3-0.3,0-0.9
		c-0.6,0.3-0.3,0.7-0.4,0.7c-0.1,0,0-0.4-0.7-0.4c-0.1,0.7,0.6,0.7,0.5,0.8c-0.1,0.1-0.3-0.4-0.8-0.1c0,0.4,0.3,0.7,0.6,0.7
		c0.1,0,0.2,0,0.3,0c-0.1,1-1,0.9-1.7,2c1.5,0.8,2.2,2.1,3.1,3c0.3-0.4,0.6-0.7,0.8-1.2c0.5,0.5,1.2,0.5,1.7,0c0,0,0,0,0,0
		C45.2,24.3,45.2,24,44.6,23.5 M43.2,23.7c0.2,0.5,0.2,1.2-0.2,1.6c-0.4-1-1.1-1.8-1.9-2.5c-0.1-0.1,0.1-0.2,0.5-0.3
		c1.1-0.2,2.5,0.3,3.1,0.4c-0.2,0.2-0.5,0.3-0.9,0.4c0.4,0.3,0.8,0.7,1,1.1C44.4,24.6,44.2,24.3,43.2,23.7"/>
	<path class="st0" d="M33.6,40.9v-1.3c-1.2,0.5-2.5,0.9-3.8,1l-0.1,0.4c0.1,0,0.3,0,0.5,0.1c-0.6,0.1-1.2,0.1-1.8,0.1
		c-0.6,0-1.2,0-1.8-0.1c0.2,0,0.4,0,0.5-0.1l-0.1-0.4c-1.3-0.1-2.6-0.4-3.8-1v1.3L22,41.5c1.1,0.5,2.2,1,3.4,1.3l-0.2,0.5
		c2.1,0.6,4.3,0.6,6.4,0l-0.2-0.5c1.2-0.3,2.3-0.7,3.4-1.3L33.6,40.9z M22.7,41.5l0.9-0.4v-1c0.8,0.3,1.6,0.5,2.4,0.7l-0.5,1.6
		C24.6,42.2,23.6,41.9,22.7,41.5 M28.5,43.4c-1,0-1.9-0.1-2.8-0.4l0.5-1.7c0.8,0.1,1.5,0.2,2.3,0.2c0.8,0,1.5-0.1,2.3-0.2l0.5,1.7
		C30.4,43.2,29.4,43.4,28.5,43.4 M31.4,42.4l-0.5-1.6c0.8-0.2,1.6-0.4,2.4-0.7v1l0.9,0.4C33.3,41.9,32.4,42.2,31.4,42.4"/>
	<path class="st0" d="M13.1,24.6c0.2,0.4,0.5,0.8,0.8,1.2c0.9-0.9,1.6-2.3,3.1-3c-0.7-1.2-1.7-1-1.7-2c0.4,0.1,0.8-0.1,0.9-0.5
		c0-0.1,0-0.2,0-0.2c-0.5-0.3-0.6,0.3-0.8,0.1s0.5-0.1,0.5-0.8c-0.6,0-0.5,0.4-0.7,0.4s0.2-0.4-0.4-0.7c-0.3,0.6,0.1,0.8,0,0.9
		c-0.1,0.1-0.3-0.3-0.8-0.2c0.1,0.7,0.9,0.4,0.8,0.7c-0.1,0.2-0.5-0.3-0.7,0.3c0.2,0.3,0.6,0.4,0.9,0.3c0.1,0,0.1-0.1,0.1-0.1
		c0.1,0.9,0.7,1,1.4,1.7c-1.8-0.8-4.1,0.2-4.9,0.3c0.1,0.3,0.4,0.6,0.7,0.7c-0.5,0.5-0.5,0.8-0.9,1.1C11.4,24.6,12.1,25.4,13.1,24.6
		 M12.1,24.5c0.3-0.4,0.6-0.8,1-1.1c-0.3,0-0.6-0.2-0.9-0.4c0.6-0.2,2-0.7,3.1-0.4c0.4,0.1,0.6,0.2,0.5,0.3c-0.8,0.7-1.5,1.5-2,2.5
		c-0.3-0.5-0.4-1.1-0.2-1.6C12.8,24.3,12.5,24.6,12.1,24.5"/>
	<path class="st0" d="M27.7,23.9v0.6c0.2-0.1,0.4-0.2,0.6-0.2v0.8c0,0.2-0.1,0.4-0.2,0.6h0.8c-0.1-0.2-0.2-0.4-0.2-0.6v-0.8
		c0.2,0,0.4,0,0.6,0.2v-0.6C29.3,23.9,27.7,23.9,27.7,23.9z"/>
</g>
</svg>
