<?xml version="1.0" encoding="utf-8"?>
<!-- Generator: Adobe Illustrator 19.2.1, SVG Export Plug-In . SVG Version: 6.00 Build 0)  -->
<svg version="1.1" id="Layer_1" xmlns="http://www.w3.org/2000/svg" xmlns:xlink="http://www.w3.org/1999/xlink" x="0px" y="0px"
	 width="190px" height="60.3px" viewBox="0 0 190 60.3" style="enable-background:new 0 0 190 60.3;" xml:space="preserve">
<style type="text/css">
	.st0{fill:#FFFFFF;}
	.st1{fill:#26337A;}
	.st2{fill:#EC982D;}
	.st3{fill:#CC0000;}
	.st4{fill:#FF9900;}
	.st5{fill:#000066;}
</style>
<title>Visa-light</title>
<desc>Created with Sketch.</desc>
<g id="Light-Payment-badges" transform="translate(-130.000000, -164.000000)">
	<g id="Visa-light" transform="translate(130.000000, 164.000000)">
		<path id="Rectangle" class="st0" d="M4,0h92c2.2,0,4,1.8,4,4v52c0,2.2-1.8,4-4,4H4c-2.2,0-4-1.8-4-4V4C0,1.8,1.8,0,4,0z"/>
		<polyline id="Fill-1" class="st1" points="41.5,39.5 44.6,20.5 49.5,20.5 46.4,39.5 41.5,39.5 		"/>
		<path id="Fill-2" class="st1" d="M64.2,20.9c-1-0.4-2.5-0.8-4.4-0.8c-4.9,0-8.3,2.6-8.3,6.3c0,2.7,2.4,4.3,4.3,5.2
			c1.9,0.9,2.6,1.5,2.6,2.4c0,1.3-1.5,1.9-2.9,1.9c-2,0-3-0.3-4.6-1l-0.6-0.3l-0.7,4.3c1.1,0.5,3.3,1,5.5,1c5.2,0,8.5-2.6,8.6-6.5
			c0-2.2-1.3-3.8-4.1-5.2c-1.7-0.9-2.8-1.5-2.8-2.4c0-0.8,0.9-1.6,2.8-1.6c1.6,0,2.8,0.3,3.7,0.7l0.4,0.2L64.2,20.9"/>
		<path id="Fill-3" class="st1" d="M70.8,32.8c0.4-1.1,2-5.3,2-5.3c0,0.1,0.4-1.1,0.7-1.8l0.3,1.6c0,0,0.9,4.6,1.1,5.5H70.8
			L70.8,32.8z M76.8,20.5H73c-1.2,0-2.1,0.3-2.6,1.6l-7.3,17.5h5.2c0,0,0.8-2.4,1-2.9c0.6,0,5.6,0,6.3,0c0.1,0.7,0.6,2.9,0.6,2.9
			h4.6L76.8,20.5L76.8,20.5z"/>
		<path id="Fill-4" class="st1" d="M37.4,20.5l-4.8,13L32,30.8c-0.9-3-3.7-6.3-6.8-8l4.4,16.7l5.2,0l7.7-19H37.4"/>
		<path id="Fill-5" class="st2" d="M28.1,20.5h-7.9l-0.1,0.4c6.2,1.6,10.2,5.4,11.9,10l-1.7-8.8C30,20.9,29.2,20.5,28.1,20.5"/>
	</g>
</g>
<g id="Light-Payment-badges_1_" transform="translate(-290.000000, -164.000000)">
	<g id="MasterCard-light" transform="translate(290.000000, 164.000000)">
		<path id="Rectangle_1_" class="st0" d="M94,0.3h92c2.2,0,4,1.8,4,4v52c0,2.2-1.8,4-4,4H94c-2.2,0-4-1.8-4-4v-52
			C90,2.1,91.8,0.3,94,0.3z"/>
		<path id="Fill-333" class="st3" d="M146.1,30.8c0,10.8-8.7,19.5-19.5,19.5c-10.8,0-19.5-8.7-19.5-19.5c0-10.8,8.7-19.5,19.5-19.5
			C137.4,11.2,146.1,20,146.1,30.8"/>
		<path id="Fill-334" class="st4" d="M152.8,11.2c-5,0-9.6,1.9-13.1,5.1c-0.7,0.6-1.4,1.3-2,2.1h3.9c0.5,0.7,1,1.3,1.5,2.1h-6.9
			c-0.4,0.7-0.8,1.4-1.1,2.1h9.2c0.3,0.7,0.6,1.4,0.8,2.1h-10.8c-0.2,0.7-0.4,1.4-0.6,2.1h12c0.3,1.3,0.4,2.7,0.4,4.1
			c0,2.2-0.4,4.3-1,6.2h-10.8c0.2,0.7,0.5,1.4,0.8,2.1h9.2c-0.3,0.7-0.7,1.4-1.1,2.1h-6.9c0.5,0.7,0.9,1.4,1.5,2.1h3.9
			c-0.6,0.7-1.3,1.4-2,2.1c3.5,3.1,8.1,5.1,13.1,5.1c10.8,0,19.5-8.7,19.5-19.5C172.3,20,163.6,11.2,152.8,11.2"/>
		<path id="Fill-336" class="st5" d="M122.1,32.9c-0.2,0-0.3,0-0.5,0c-1.2,0-1.8,0.4-1.8,1.2c0,0.5,0.3,0.8,0.8,0.8
			C121.4,34.9,122,34.1,122.1,32.9L122.1,32.9z M123.6,36.5h-1.8l0-0.8c-0.5,0.7-1.2,1-2.2,1c-1.1,0-1.9-0.9-1.9-2.2
			c0-2,1.4-3.1,3.7-3.1c0.2,0,0.5,0,0.9,0.1c0.1-0.3,0.1-0.4,0.1-0.5c0-0.5-0.4-0.7-1.4-0.7c-1,0-1.9,0.2-2.2,0.4
			c0-0.1,0.3-1.8,0.3-1.8c1.1-0.3,1.8-0.4,2.5-0.4c1.8,0,2.8,0.8,2.8,2.4c0,0.4-0.1,0.9-0.2,1.6C124,33.4,123.7,35.9,123.6,36.5
			L123.6,36.5z"/>
		<polyline id="Fill-337" class="st5" points="116.8,36.5 114.7,36.5 115.9,28.9 113.2,36.5 111.8,36.5 111.6,28.9 110.3,36.5 
			108.3,36.5 110,26.6 113,26.6 113.2,32.1 115.1,26.6 118.5,26.6 116.8,36.5 		"/>
		<path id="Fill-338" class="st5" d="M155.4,32.9c-0.2,0-0.3,0-0.5,0c-1.2,0-1.8,0.4-1.8,1.2c0,0.5,0.3,0.8,0.8,0.8
			C154.8,34.9,155.4,34.1,155.4,32.9L155.4,32.9z M157,36.5h-1.8l0-0.8c-0.5,0.7-1.2,1-2.2,1c-1.1,0-1.9-0.9-1.9-2.2
			c0-2,1.4-3.1,3.7-3.1c0.2,0,0.5,0,0.9,0.1c0.1-0.3,0.1-0.4,0.1-0.5c0-0.5-0.4-0.7-1.4-0.7c-1,0-1.9,0.2-2.2,0.4
			c0-0.1,0.3-1.8,0.3-1.8c1.1-0.3,1.8-0.4,2.5-0.4c1.8,0,2.8,0.8,2.8,2.4c0,0.4-0.1,0.9-0.2,1.6C157.4,33.4,157,35.9,157,36.5
			L157,36.5z"/>
		<path id="Fill-339" class="st5" d="M133,36.4c-0.6,0.2-1,0.3-1.5,0.3c-1.1,0-1.7-0.6-1.7-1.8c0-0.4,0.2-1.3,0.3-2.1
			c0.1-0.8,0.9-5.5,0.9-5.5h2.1l-0.2,1.2h1.3l-0.3,1.9h-1.3c-0.2,1.5-0.6,3.4-0.6,3.7c0,0.4,0.2,0.6,0.7,0.6c0.2,0,0.4,0,0.6-0.1
			L133,36.4"/>
		<path id="Fill-340" class="st5" d="M139.5,36.3c-0.7,0.2-1.4,0.3-2.2,0.3c-2.4,0-3.6-1.2-3.6-3.6c0-2.8,1.6-4.8,3.7-4.8
			c1.7,0,2.8,1.1,2.8,2.9c0,0.6-0.1,1.2-0.3,2h-4.2c-0.1,1.2,0.6,1.7,1.8,1.7c0.8,0,1.4-0.2,2.2-0.5L139.5,36.3L139.5,36.3z
			 M138.3,31.5c0-0.2,0.2-1.4-1-1.4c-0.7,0-1.2,0.5-1.3,1.4H138.3L138.3,31.5z"/>
		<path id="Fill-341" class="st5" d="M124.9,31c0,1,0.5,1.7,1.6,2.2c0.9,0.4,1,0.5,1,0.9c0,0.5-0.4,0.7-1.2,0.7
			c-0.6,0-1.2-0.1-1.9-0.3c0,0-0.3,1.8-0.3,1.9c0.5,0.1,0.9,0.2,2.2,0.2c2.2,0,3.3-0.9,3.3-2.7c0-1.1-0.4-1.8-1.5-2.2
			c-0.9-0.4-1-0.5-1-0.9c0-0.4,0.4-0.7,1-0.7c0.4,0,1,0,1.5,0.1l0.3-1.9c-0.5-0.1-1.4-0.2-1.9-0.2C125.7,28.2,124.9,29.5,124.9,31"
			/>
		<path id="Fill-342" class="st5" d="M149.8,28.5c0.6,0,1.1,0.2,1.9,0.5l0.3-2.1c-0.3-0.1-1.4-0.8-2.3-0.8c-1.4,0-2.6,0.7-3.5,1.9
			c-1.2-0.4-1.7,0.4-2.4,1.2l-0.6,0.1c0-0.3,0.1-0.5,0.1-0.8h-1.9c-0.3,2.5-0.7,5-1.1,7.5l-0.1,0.5h2.1c0.4-2.3,0.5-3.8,0.7-4.8
			l0.8-0.4c0.1-0.4,0.5-0.6,1.2-0.6c-0.1,0.5-0.2,1.1-0.2,1.6c0,2.6,1.4,4.3,3.7,4.3c0.6,0,1.1-0.1,1.9-0.3l0.4-2.3
			c-0.7,0.3-1.3,0.5-1.8,0.5c-1.2,0-2-0.9-2-2.4C147.1,30,148.2,28.5,149.8,28.5"/>
		<path id="Fill-343" class="st5" d="M167.7,26.6l-0.5,2.9c-0.6-0.8-1.2-1.3-2-1.3c-1.1,0-2,0.8-2.7,2c-0.9-0.2-1.8-0.5-1.8-0.5l0,0
			c0.1-0.7,0.1-1.1,0.1-1.2h-1.9c-0.3,2.5-0.7,5-1.1,7.5l-0.1,0.5h2.1c0.3-1.9,0.5-3.4,0.7-4.6c0.7-0.7,1.1-1.2,1.8-1.2
			c-0.3,0.8-0.5,1.7-0.5,2.6c0,2,1,3.3,2.6,3.3c0.8,0,1.4-0.3,2-0.9l-0.1,0.7h2l1.6-9.9H167.7L167.7,26.6z M165.1,34.6
			c-0.7,0-1.1-0.5-1.1-1.6c0-1.6,0.7-2.7,1.6-2.7c0.7,0,1.1,0.6,1.1,1.6C166.7,33.5,166,34.6,165.1,34.6L165.1,34.6z"/>
		<polyline id="Fill-344" class="st0" points="117.4,35.9 115.3,35.9 116.5,28.3 113.8,35.9 112.4,35.9 112.2,28.3 110.9,35.9 
			109,35.9 110.6,26 113.7,26 113.7,32.1 115.8,26 119.1,26 117.4,35.9 		"/>
		<path id="Fill-345" class="st0" d="M122.7,32.3c-0.2,0-0.3,0-0.5,0c-1.2,0-1.8,0.4-1.8,1.2c0,0.5,0.3,0.8,0.8,0.8
			C122,34.3,122.6,33.5,122.7,32.3L122.7,32.3z M124.2,35.9h-1.8l0-0.8c-0.5,0.7-1.2,1-2.2,1c-1.1,0-1.9-0.9-1.9-2.2
			c0-2,1.4-3.1,3.7-3.1c0.2,0,0.5,0,0.9,0.1c0.1-0.3,0.1-0.4,0.1-0.5c0-0.5-0.4-0.7-1.4-0.7c-1,0-1.9,0.2-2.2,0.4
			c0-0.1,0.3-1.8,0.3-1.8c1.1-0.3,1.8-0.4,2.5-0.4c1.8,0,2.8,0.8,2.8,2.4c0,0.4-0.1,0.9-0.2,1.6C124.7,32.8,124.3,35.3,124.2,35.9
			L124.2,35.9z"/>
		<path id="Fill-346" class="st0" d="M152.6,26.3l-0.3,2.1c-0.8-0.4-1.3-0.5-1.9-0.5c-1.6,0-2.7,1.5-2.7,3.7c0,1.5,0.7,2.4,2,2.4
			c0.5,0,1.1-0.2,1.8-0.5l-0.4,2.3c-0.8,0.2-1.3,0.3-1.9,0.3c-2.3,0-3.7-1.6-3.7-4.3c0-3.5,2-6,4.8-6
			C151.2,25.7,152.3,26.1,152.6,26.3"/>
		<path id="Fill-347" class="st0" d="M156,32.3c-0.2,0-0.3,0-0.5,0c-1.2,0-1.8,0.4-1.8,1.2c0,0.5,0.3,0.8,0.8,0.8
			C155.4,34.3,156,33.5,156,32.3L156,32.3z M157.6,35.9h-1.8l0-0.8c-0.5,0.7-1.2,1-2.2,1c-1.1,0-1.9-0.9-1.9-2.2
			c0-2,1.4-3.1,3.7-3.1c0.2,0,0.5,0,0.9,0.1c0.1-0.3,0.1-0.4,0.1-0.5c0-0.5-0.4-0.7-1.4-0.7c-1,0-1.9,0.2-2.2,0.4
			c0-0.1,0.3-1.8,0.3-1.8c1.1-0.3,1.8-0.4,2.5-0.4c1.8,0,2.8,0.8,2.8,2.4c0,0.4-0.1,0.9-0.2,1.6C158,32.8,157.6,35.3,157.6,35.9
			L157.6,35.9z"/>
		<path id="Fill-348" class="st0" d="M133.6,35.8c-0.6,0.2-1,0.3-1.5,0.3c-1.1,0-1.7-0.6-1.7-1.8c0-0.4,0.2-1.3,0.3-2.1
			c0.1-0.8,0.9-5.5,0.9-5.5h2.1l-0.2,1.2h1.1l-0.3,1.9h-1.1c-0.2,1.5-0.6,3.4-0.6,3.7c0,0.4,0.2,0.6,0.7,0.6c0.2,0,0.4,0,0.6-0.1
			L133.6,35.8"/>
		<path id="Fill-349" class="st0" d="M140.1,35.7c-0.7,0.2-1.4,0.3-2.2,0.3c-2.4,0-3.6-1.2-3.6-3.6c0-2.8,1.6-4.8,3.7-4.8
			c1.7,0,2.8,1.1,2.8,2.9c0,0.6-0.1,1.2-0.3,2h-4.2c-0.1,1.2,0.6,1.7,1.8,1.7c0.8,0,1.4-0.2,2.2-0.5L140.1,35.7L140.1,35.7z
			 M138.9,30.9c0-0.2,0.2-1.4-1-1.4c-0.7,0-1.2,0.5-1.3,1.4H138.9L138.9,30.9z"/>
		<path id="Fill-350" class="st0" d="M125.5,30.4c0,1,0.5,1.7,1.6,2.2c0.9,0.4,1,0.5,1,0.9c0,0.5-0.4,0.7-1.2,0.7
			c-0.6,0-1.2-0.1-1.9-0.3c0,0-0.3,1.8-0.3,1.9c0.5,0.1,0.9,0.2,2.2,0.2c2.2,0,3.3-0.9,3.3-2.7c0-1.1-0.4-1.8-1.5-2.2
			c-0.9-0.4-1-0.5-1-0.9c0-0.4,0.4-0.7,1-0.7c0.4,0,1,0,1.5,0.1l0.3-1.9c-0.5-0.1-1.4-0.2-1.9-0.2C126.3,27.7,125.5,28.9,125.5,30.4
			"/>
		<path id="Fill-351" class="st0" d="M168.8,35.9h-2l0.1-0.7c-0.6,0.6-1.2,0.9-2,0.9c-1.5,0-2.6-1.3-2.6-3.3c0-2.7,1.6-4.9,3.4-4.9
			c0.8,0,1.4,0.3,2,1.1l0.5-2.9h2.1L168.8,35.9L168.8,35.9z M165.7,34c1,0,1.7-1.1,1.7-2.7c0-1-0.4-1.6-1.1-1.6
			c-1,0-1.6,1.1-1.6,2.7C164.6,33.5,165,34,165.7,34L165.7,34z"/>
		<path id="Fill-352" class="st0" d="M159.5,27.8c-0.3,2.5-0.7,5-1.1,7.5l-0.1,0.5h2.1c0.8-4.9,0.9-5.9,2.1-5.8
			c0.2-1,0.5-1.9,0.8-2.3c-0.9-0.2-1.4,0.3-2,1.3c0.1-0.4,0.1-0.8,0.1-1.2H159.5"/>
		<path id="Fill-353" class="st0" d="M142.1,27.8c-0.3,2.5-0.7,5-1.1,7.5l-0.1,0.5h2.1c0.8-4.9,0.9-5.9,2.1-5.8
			c0.2-1,0.5-1.9,0.8-2.3c-0.9-0.2-1.4,0.3-2,1.3c0.1-0.4,0.1-0.8,0.1-1.2H142.1"/>
	</g>
</g>
</svg>
