<?xml version="1.0" encoding="utf-8"?>
<!-- Generator: Adobe Illustrator 21.1.0, SVG Export Plug-In . SVG Version: 6.00 Build 0)  -->
<svg version="1.1" id="Layer_1" xmlns="http://www.w3.org/2000/svg" xmlns:xlink="http://www.w3.org/1999/xlink" x="0px" y="0px"
	 viewBox="0 0 148 58" style="enable-background:new 0 0 148 58;" xml:space="preserve">
<style type="text/css">
	.st0{fill:#FF0000;}
</style>
<g>
	<path d="M47.3,41h-2.1v-3h-6.5v3h-2.1v-4.9h0.9c0.3-0.8,0.6-1.7,0.8-2.7c0.2-1,0.4-2,0.5-3c0.1-1,0.2-2.1,0.2-3.1s0-2.1,0-3.1v-1.3
		h7v13.2h1.2V41z M57.5,37c-0.5,0.4-1,0.7-1.7,0.9c-0.6,0.2-1.3,0.3-2.1,0.3c-1.6,0-2.8-0.6-3.7-1.8c-0.9-1.2-1.4-3-1.4-5.3
		c0-1.2,0.1-2.3,0.3-3.4c0.2-1,0.4-1.9,0.8-2.7c0.4-0.8,0.8-1.3,1.4-1.8c0.6-0.4,1.3-0.6,2.1-0.6c0.6,0,1.2,0.1,1.7,0.4
		s1,0.7,1.3,1.2s0.6,1.3,0.8,2.2c0.2,0.9,0.3,2,0.3,3.3V31h-6.3c0,1.7,0.2,3,0.7,3.9c0.5,0.9,1.2,1.3,2.1,1.3c0.7,0,1.2-0.1,1.8-0.3
		s0.9-0.5,1.2-0.7L57.5,37z M35.3,22.9V38H33v-6.8h-3.5V38h-2.3V22.9h2.3v6.4H33v-6.4H35.3z M62.2,30.5V38h-2.3V22.9h2.3v7l3.6-7
		h2.4L64.4,30l4.3,8h-2.6L62.2,30.5z M74.2,38.2c-1.6,0-2.9-0.6-3.8-1.9C69.5,35,69,33,69,30.4c0-1.2,0.1-2.2,0.3-3.2
		c0.2-1,0.6-1.8,1-2.4c0.5-0.7,1-1.2,1.7-1.6s1.4-0.6,2.3-0.6c0.7,0,1.2,0.1,1.6,0.2c0.4,0.2,0.8,0.3,1.1,0.6l-0.3,2.2
		c-0.3-0.3-0.7-0.5-1.1-0.7c-0.4-0.2-0.9-0.3-1.4-0.3c-0.8,0-1.5,0.5-2.1,1.4c-0.5,0.9-0.8,2.4-0.8,4.3c0,1.9,0.2,3.4,0.7,4.4
		c0.4,1,1.2,1.5,2.1,1.5c0.6,0,1.1-0.1,1.5-0.3c0.4-0.2,0.8-0.4,1-0.6l0.5,1.7c-0.4,0.3-0.8,0.6-1.3,0.8S74.9,38.2,74.2,38.2z
		 M43.8,24.8h-2.6V25c0,0.8,0,1.7,0,2.6s-0.1,1.9-0.2,2.9c-0.1,1-0.2,1.9-0.4,2.9s-0.4,1.8-0.8,2.6h4V24.8z M53.3,24.6
		c-0.7,0-1.2,0.4-1.5,1.2c-0.3,0.8-0.5,1.9-0.6,3.3h3.9c0-0.6,0-1.2-0.1-1.8c-0.1-0.6-0.2-1-0.3-1.4c-0.1-0.4-0.3-0.7-0.5-0.9
		C53.9,24.7,53.6,24.6,53.3,24.6z M86.1,26.7V38h-1.5V16.5h1.5v10l6.3-10h1.4l-6.2,9.9L94.3,38h-1.7L86.1,26.7z M99.3,37.1
		c0.7,0,1.3-0.3,1.8-0.9c0.5-0.6,0.9-1.3,1.2-2.1V30h-1.6c-1.3,0-2.2,0.3-2.8,0.9c-0.6,0.6-0.9,1.6-0.9,2.9c0,1.1,0.2,1.9,0.6,2.5
		S98.6,37.1,99.3,37.1z M102.6,38c-0.1-0.2-0.1-0.5-0.2-0.8s-0.1-0.7-0.2-1.3c-0.4,0.7-0.8,1.3-1.3,1.7c-0.5,0.4-1.2,0.6-1.9,0.6
		c-1,0-1.8-0.4-2.5-1.2c-0.6-0.8-1-1.8-1-3.2c0-1.6,0.4-2.8,1.3-3.7c0.9-0.8,2.1-1.2,3.8-1.2h1.7v-1.9c0-1.2-0.2-2-0.6-2.5
		c-0.4-0.5-1-0.8-1.9-0.8c-0.6,0-1.2,0.1-1.8,0.4c-0.6,0.3-1,0.7-1.4,1.2l-0.4-1.3c0.3-0.4,0.8-0.8,1.4-1.1c0.6-0.3,1.3-0.5,2.2-0.5
		c1.3,0,2.2,0.4,2.9,1.1s1,1.8,1,3.3v8.3c0,0.5,0,1,0.1,1.6c0.1,0.5,0.1,0.9,0.2,1.2H102.6z M111.1,37.1c0.5,0,0.9-0.1,1.3-0.2
		c0.4-0.2,0.7-0.3,0.9-0.6c0.3-0.2,0.6-0.5,0.8-0.8l0.4,1.2c-0.2,0.3-0.5,0.6-0.8,0.8c-0.3,0.2-0.6,0.4-1.1,0.6
		c-0.5,0.2-1,0.3-1.5,0.3c-1.5,0-2.7-0.7-3.5-2.1c-0.8-1.4-1.2-3.3-1.2-5.8c0-2.5,0.4-4.4,1.2-5.8s2-2.1,3.6-2.1
		c0.8,0,1.4,0.1,2,0.4c0.5,0.3,1,0.6,1.3,1l-0.4,1.5c-0.3-0.5-0.8-0.9-1.2-1.2c-0.5-0.3-1-0.5-1.7-0.5c-1.2,0-2,0.6-2.6,1.7
		c-0.6,1.2-0.8,2.8-0.8,4.9c0,2.1,0.3,3.7,0.8,4.9C109,36.5,109.9,37.1,111.1,37.1z M121,37.1c0.5,0,0.9-0.1,1.3-0.2
		c0.4-0.2,0.7-0.3,0.9-0.6c0.3-0.2,0.6-0.5,0.8-0.8l0.5,1.2c-0.2,0.3-0.5,0.6-0.8,0.8c-0.3,0.2-0.6,0.4-1.1,0.6
		c-0.4,0.2-1,0.3-1.5,0.3c-1.5,0-2.7-0.7-3.5-2.1c-0.8-1.4-1.2-3.3-1.2-5.8c0-2.5,0.4-4.4,1.2-5.8c0.8-1.4,2-2.1,3.6-2.1
		c0.8,0,1.4,0.1,2,0.4c0.5,0.3,1,0.6,1.3,1l-0.4,1.5c-0.3-0.5-0.8-0.9-1.2-1.2c-0.5-0.3-1-0.5-1.7-0.5c-1.2,0-2,0.6-2.6,1.7
		c-0.6,1.2-0.8,2.8-0.8,4.9c0,2.1,0.3,3.7,0.8,4.9C119,36.5,119.8,37.1,121,37.1z M129.7,37.1c0.7,0,1.3-0.3,1.8-0.9
		s0.9-1.3,1.2-2.1V30h-1.6c-1.3,0-2.2,0.3-2.8,0.9c-0.6,0.6-0.9,1.6-0.9,2.9c0,1.1,0.2,1.9,0.6,2.5C128.4,36.9,129,37.1,129.7,37.1z
		 M133.1,38c-0.1-0.2-0.1-0.5-0.2-0.8c-0.1-0.3-0.1-0.7-0.2-1.3c-0.4,0.7-0.8,1.3-1.4,1.7c-0.5,0.4-1.2,0.6-2,0.6
		c-1,0-1.8-0.4-2.5-1.2c-0.6-0.8-1-1.8-1-3.2c0-1.6,0.4-2.8,1.3-3.7c0.9-0.8,2.1-1.2,3.7-1.2h1.7v-1.9c0-1.2-0.2-2-0.6-2.5
		c-0.4-0.5-1.1-0.8-1.9-0.8c-0.6,0-1.2,0.1-1.8,0.4c-0.6,0.3-1,0.7-1.4,1.2l-0.4-1.3c0.3-0.4,0.8-0.8,1.4-1.1
		c0.6-0.3,1.3-0.5,2.2-0.5c1.3,0,2.2,0.4,2.9,1.1s1,1.8,1,3.3v8.3c0,0.5,0,1,0.1,1.6s0.1,0.9,0.2,1.2H133.1z"/>
	<path class="st0" d="M19.9,29.8L16.3,38h-2.7l4-8.8c-0.9-0.5-1.7-1.2-2.3-2.1c-0.6-0.9-0.9-2.2-0.9-3.8c0-1.1,0.2-2.1,0.5-3
		s0.8-1.6,1.4-2.1c0.6-0.6,1.2-1,2-1.3c0.8-0.3,1.6-0.4,2.4-0.4h3.5V38h-2.3v-8.2H19.9z M21.9,18.5h-1.2c-0.5,0-0.9,0.1-1.3,0.3
		c-0.4,0.2-0.8,0.4-1.2,0.8c-0.3,0.4-0.6,0.9-0.8,1.5c-0.2,0.6-0.3,1.4-0.3,2.3c0,0.9,0.1,1.6,0.3,2.2c0.2,0.6,0.4,1,0.8,1.4
		c0.3,0.4,0.7,0.6,1.2,0.8c0.5,0.1,0.9,0.2,1.4,0.2h1.2V18.5z"/>
</g>
</svg>
